<?xml version="1.0" encoding="UTF-8" standalone="no"?>
<svg
   xmlns:dc="http://purl.org/dc/elements/1.1/"
   xmlns:cc="http://creativecommons.org/ns#"
   xmlns:rdf="http://www.w3.org/1999/02/22-rdf-syntax-ns#"
   xmlns:svg="http://www.w3.org/2000/svg"
   xmlns="http://www.w3.org/2000/svg"
   xmlns:sodipodi="http://sodipodi.sourceforge.net/DTD/sodipodi-0.dtd"
   xmlns:inkscape="http://www.inkscape.org/namespaces/inkscape"
   version="1.0"
   width="490.09375"
   height="348.71875"
   id="svg2"
   inkscape:version="0.48.2 r9819"
   sodipodi:docname="Vergleich_zh-Hant-CN_zh-Hant-TW_ja-Hani_ko-Hani.svg">
  <metadata
     id="metadata45">
    <rdf:RDF>
      <cc:Work
         rdf:about="">
        <dc:format>image/svg+xml</dc:format>
        <dc:type
           rdf:resource="http://purl.org/dc/dcmitype/StillImage" />
      </cc:Work>
    </rdf:RDF>
  </metadata>
  <sodipodi:namedview
     pagecolor="#ffffff"
     bordercolor="#666666"
     borderopacity="1"
     objecttolerance="10"
     gridtolerance="10"
     guidetolerance="10"
     inkscape:pageopacity="0"
     inkscape:pageshadow="2"
     inkscape:window-width="1024"
     inkscape:window-height="544"
     id="namedview43"
     showgrid="false"
     fit-margin-top="0"
     fit-margin-left="0"
     fit-margin-right="0"
     fit-margin-bottom="0"
     inkscape:zoom="1.1380838"
     inkscape:cx="245.05052"
     inkscape:cy="174.37855"
     inkscape:window-x="-4"
     inkscape:window-y="-4"
     inkscape:window-maximized="1"
     inkscape:current-layer="svg2" />
  <defs
     id="defs4" />
  <g
     id="g4112">
    <path
       d="m 185.03688,114.34023 c 5.62498,4.68754 8.43748,7.96879 8.4375,9.84375 -2e-5,1.87504 -0.65627,3.42191 -1.96875,4.64062 -1.31251,1.21879 -2.20314,0.46879 -2.67187,-2.25 -0.46877,-2.71871 -2.01564,-6.60933 -4.64063,-11.67187 l 0.84375,-0.5625 z m 13.21875,2.8125 c -2e-5,-2.62495 -0.0938,-5.81245 -0.28125,-9.5625 l 6.46875,2.53125 -2.53125,2.53125 0,20.8125 8.4375,0 3.375,-3.375 5.0625,5.0625 -16.875,0 c -0.18753,3.56252 -0.46878,7.40627 -0.84375,11.53125 l 10.6875,0 3.65625,-3.65625 5.34375,5.34375 -19.96875,0 c -0.93752,4.87501 -3.32815,9.51563 -7.17187,13.92187 -3.84377,4.40625 -8.76564,8.01562 -14.76563,10.82813 l -0.5625,-0.84375 c 4.49999,-3.00001 8.39061,-6.32813 11.67188,-9.98438 3.28123,-3.65624 5.67185,-8.29686 7.17187,-13.92187 l -8.71875,0 c -2.43751,1e-5 -4.68751,0.28126 -6.75,0.84375 l -2.53125,-2.53125 18.28125,0 c 0.37498,-4.12498 0.65623,-7.96873 0.84375,-11.53125 l -6.1875,0 c -2.43751,3e-5 -4.68751,0.28128 -6.75,0.84375 l -2.53125,-2.53125 15.46875,0 0,-16.3125 z m 14.0625,-3.65625 5.34375,3.9375 c -1.50004,0.56254 -3.46879,2.48442 -5.90625,5.76562 -2.43753,3.28129 -4.59378,5.76566 -6.46875,7.45313 l -0.84375,-0.5625 c 1.49997,-2.43747 3.04684,-5.24996 4.64063,-8.4375 1.59371,-3.18746 2.67183,-5.9062 3.23437,-8.15625 l 0,0 z m 14.90625,9.28125 0,27 c -5e-5,2.62501 0.0937,5.15626 0.28125,7.59375 l -4.21875,1.96875 c 0.18745,-5.99999 0.2812,-13.17186 0.28125,-21.51563 -5e-5,-8.34371 -0.0938,-14.95308 -0.28125,-19.82812 l 6.1875,2.8125 -2.25,1.96875 z m 9,40.21875 0,-43.3125 c -6e-5,-5.62495 -0.0938,-9.74995 -0.28125,-12.375 l 6.1875,2.8125 -2.25,2.25 0,51.75 c 0.18744,4.31249 -1.96881,7.21874 -6.46875,8.71875 -0.37506,-2.81251 -3.18755,-4.87501 -8.4375,-6.1875 l 0,-1.125 c 4.49995,0.375 7.49994,0.5625 9,0.5625 1.49994,0 2.24994,-1.03125 2.25,-3.09375 l 0,0 z"
       style="font-size:72px;font-style:normal;font-variant:normal;font-weight:normal;font-stretch:normal;text-align:start;line-height:100%;writing-mode:lr-tb;text-anchor:start"
       id="flowRoot1954"
       inkscape:connector-curvature="0" />
    <path
       d="m 287.84752,112.03848 c 2.15621,0.60942 4.1484,1.38286 5.97656,2.32031 0.28121,0.28129 0.42184,0.51567 0.42188,0.70312 -4e-5,0.42192 -0.30473,0.75005 -0.91406,0.98438 -1.07817,0.28129 -2.06254,0.42192 -2.95313,0.42187 -0.51566,1.0313 -1.1016,2.01567 -1.75781,2.95313 -0.60941,0.98441 -1.31254,1.94535 -2.10938,2.88281 -0.70316,0.89066 -1.42972,1.68754 -2.17968,2.39063 -0.70316,0.70316 -1.59379,1.45316 -2.67188,2.25 l -1.125,-0.84375 c 1.03122,-1.07809 1.89841,-2.17965 2.60156,-3.30469 0.8906,-1.31246 1.68747,-2.69527 2.39063,-4.14844 0.70309,-1.45308 1.31246,-2.9062 1.82812,-4.35937 0.23434,-0.74996 0.3984,-1.49996 0.49219,-2.25 l 0,0 z m -27.5625,0.77343 c 1.21874,1.17193 2.34374,2.3438 3.375,3.51563 1.07811,1.12504 1.9453,2.17973 2.60156,3.16406 0.74999,1.03129 1.24217,1.92192 1.47657,2.67188 0.23435,0.75003 0.35154,1.4766 0.35156,2.17968 -2e-5,0.75004 -0.11721,1.35941 -0.35156,1.82813 -0.37502,0.51566 -0.7969,0.77347 -1.26563,0.77344 -0.37501,3e-5 -0.65626,-0.1406 -0.84375,-0.42188 -0.28126,-0.23434 -0.51564,-0.86715 -0.70312,-1.89844 -0.28127,-1.31246 -0.6797,-2.57808 -1.19532,-3.79687 -0.51563,-1.26559 -1.10157,-2.43746 -1.75781,-3.51563 -0.65626,-1.12495 -1.50001,-2.32026 -2.53125,-3.58593 l 0.84375,-0.91407 z m -2.03906,17.22657 c 2.06249,0.51565 4.80467,0.77346 8.22656,0.77343 l 6.96094,0 0,-14.76562 c -2e-5,-4.54683 -0.18752,-7.7812 -0.5625,-9.70313 2.34372,0.28131 4.47653,0.70318 6.39844,1.26563 0.42184,0.0938 0.63278,0.35161 0.63281,0.77344 -3e-5,0.42192 -0.28128,0.77348 -0.84375,1.05468 -0.6094,0.37505 -1.3594,0.6563 -2.25,0.84375 l 0,20.53125 8.15625,0 3.09375,-3.375 c 1.73433,1.21879 3.32808,2.36722 4.78125,3.44532 0.42183,0.2344 0.63277,0.51565 0.63281,0.84375 -4e-5,0.75002 -0.28129,1.12502 -0.84375,1.125 l -15.82031,0 c -3e-5,4.73439 -0.35159,9.09376 -1.05469,13.07812 -0.0469,0.23439 -0.0938,0.46877 -0.14062,0.70313 l 11.67187,0 3.375,-3.72657 c 1.68746,1.31252 3.23433,2.55471 4.64063,3.72657 0.4687,0.23438 0.70308,0.51563 0.70312,0.84375 -4e-5,0.70313 -0.30473,1.0547 -0.91406,1.05468 l -19.89844,0 c -0.70315,2.85939 -1.50002,5.3672 -2.39062,7.52344 -1.3594,2.8125 -3.16409,5.53125 -5.41407,8.15625 -2.25001,2.67187 -5.10938,5.1328 -8.57812,7.38281 l -1.05469,-1.19531 c 3.32812,-2.57813 5.90624,-5.03907 7.73438,-7.38281 1.68748,-2.4375 3.11717,-4.99219 4.28906,-7.66406 0.79685,-1.78125 1.52342,-4.05468 2.17969,-6.82032 l -8.29688,0 c -3.32813,0.0469 -5.57813,0.14064 -6.75,0.28125 l -1.47656,-3.09375 c 2.06249,0.60939 4.80468,0.91408 8.22656,0.91407 l 8.71875,0 c 0.0469,-0.28124 0.0937,-0.53905 0.14063,-0.77344 0.60935,-4.12498 0.91404,-8.46092 0.91406,-13.00781 l -6.96094,0 c -3.32814,0.0469 -5.57813,0.11721 -6.75,0.21093 l -1.47656,-3.02343 z m 41.13281,-17.50782 c 2.62495,0.32818 4.82807,0.8438 6.60938,1.54688 0.60932,0.28129 0.914,0.60942 0.91406,0.98437 -6e-5,0.42192 -0.30474,0.72661 -0.91406,0.91407 -0.84381,0.46879 -1.85162,0.75004 -3.02344,0.84375 l 0,32.55468 c -5e-5,1.07814 0.0468,1.8047 0.14062,2.17969 0.0937,0.84376 0.14058,1.54688 0.14063,2.10938 -5e-5,1.5 -0.75005,2.25 -2.25,2.25 -1.07818,0 -1.61724,-0.39844 -1.61719,-1.19532 -5e-5,-0.98436 0.0468,-2.24999 0.14063,-3.79687 0.0937,-1.64062 0.14057,-3.0703 0.14062,-4.28906 l 0,-28.47657 c -5e-5,-2.48433 -0.0938,-4.35932 -0.28125,-5.625 l 0,0 z m 13.71094,-6.1875 c 2.62493,0.32818 4.92181,0.93756 6.89062,1.82813 0.51556,0.18755 0.77337,0.44536 0.77344,0.77344 -7e-5,0.42192 -0.32819,0.75005 -0.98437,0.98437 -0.98445,0.2813 -1.96882,0.51568 -2.95313,0.70313 l 0,54.49218 c -6e-5,1.59375 -0.3985,2.78906 -1.19531,3.58594 -0.60944,0.74999 -1.50006,1.35937 -2.67188,1.82813 -0.98443,0.51561 -1.87506,0.77342 -2.67187,0.77343 l -0.0703,-1.05468 c -0.14069,-0.60939 -0.3985,-1.0547 -0.77344,-1.33594 -0.60943,-0.56251 -1.68756,-1.07813 -3.23438,-1.54688 -1.68755,-0.46875 -3.60942,-0.77344 -5.76562,-0.91406 l 0,-1.61719 c 3.4687,0.75 6.56244,1.125 9.28125,1.125 1.49994,0 2.46087,-0.16406 2.88281,-0.49218 0.56244,-0.28126 0.84369,-0.98438 0.84375,-2.10938 l 0,-51.32812 c -6e-5,-2.7187 -0.11725,-4.61714 -0.35156,-5.69532 l 0,0 z"
       style="font-size:72px;font-style:normal;font-variant:normal;font-weight:normal;font-stretch:normal;text-align:start;line-height:100%;writing-mode:lr-tb;text-anchor:start"
       id="flowRoot1964"
       inkscape:connector-curvature="0" />
    <path
       d="m 339.18352,121.3768 c -0.75001,-3.93746 -2.53126,-7.4062 -5.34375,-10.40625 -0.5625,-0.93745 -0.28125,-1.12495 0.84375,-0.5625 5.81249,4.12505 8.71874,8.06254 8.71875,11.8125 -10e-6,1.68754 -0.65626,2.53129 -1.96875,2.53125 -1.12501,4e-5 -1.87501,-1.12496 -2.25,-3.375 l 0,0 z m 54.84375,39.09375 c -6e-5,2.25 -0.65631,3.9375 -1.96875,5.0625 -1.12506,0.93749 -2.25006,1.49999 -3.375,1.6875 -1.12506,0.18749 -1.68756,-0.28126 -1.6875,-1.40625 -6e-5,-0.9375 -0.46881,-1.59375 -1.40625,-1.96875 l -4.78125,-1.125 c -0.93755,-0.375 -0.93755,-0.75 0,-1.125 l 7.03125,0 c 1.68744,0 2.53119,-0.84375 2.53125,-2.53125 l 0,-53.15625 4.78125,0.84375 c 1.49993,0.93755 1.12493,1.5938 -1.125,1.96875 l 0,51.75 z m -40.5,-32.34375 9,0 3.65625,-3.65625 4.5,3.375 c 1.12496,0.93753 1.12496,1.59378 0,1.96875 l -17.15625,0 0,12.65625 10.6875,0 3.65625,-3.65625 4.5,3.375 c 1.12496,0.93752 1.12496,1.59377 0,1.96875 l -18.84375,0 0,22.21875 c -2.43752,2.24999 -3.65627,2.34374 -3.65625,0.28125 l 0,-22.5 -18,0 0,-1.6875 18,0 0,-12.65625 -14.0625,0 0,-1.6875 14.0625,0 0,-23.90625 4.78125,0.84375 c 1.49997,0.93756 1.12497,1.5938 -1.125,1.96875 l 0,21.09375 z m 16.59375,-14.90625 c 1.49996,1.50005 0.84371,1.9688 -1.96875,1.40625 l -8.4375,10.125 c -0.93753,0.75004 -1.31253,0.56254 -1.125,-0.5625 l 7.3125,-13.78125 4.21875,2.8125 z m 9.28125,39.65625 c -2.43755,2.25001 -3.6563,2.34376 -3.65625,0.28125 l 0,-41.625 4.78125,0.84375 c 1.49995,0.93755 1.12495,1.5938 -1.125,1.96875 l 0,38.53125 0,0 z"
       style="font-size:72px;font-style:normal;font-variant:normal;font-weight:normal;font-stretch:normal;text-align:start;line-height:100%;writing-mode:lr-tb;text-anchor:start"
       id="flowRoot1972"
       inkscape:connector-curvature="0" />
    <path
       d="m 476.30762,109.27995 -4.21875,-1.19531 0.0703,4.35937 0,50.83594 c -0.0469,0.46875 -0.23443,0.79687 -0.5625,0.98437 -0.32818,0.1875 -0.86724,0.28125 -1.61718,0.28125 l -5.76563,-0.35156 -3.16406,-0.14062 0.0703,0.84375 c 2.20307,0.46874 4.00776,0.89062 5.41406,1.26562 1.31245,0.32812 2.06244,0.58594 2.25,0.77344 l 0.5625,2.39062 c 2.10932,-0.51563 3.58588,-1.17188 4.42969,-1.96875 0.89056,-0.84375 1.40619,-2.08594 1.54688,-3.72656 l 0,-52.59375 c 1.21868,-0.2812 1.9218,-0.58588 2.10937,-0.91406 0.14056,-0.2812 -0.23444,-0.56245 -1.125,-0.84375 l 0,0 z m -16.59375,7.80469 0,34.38281 -0.0703,1.40625 c -0.0469,0.84376 -5e-5,1.35938 0.14062,1.54687 0.23433,0.28126 0.79683,0.35158 1.6875,0.21094 0.79683,-0.32811 1.28901,-0.70311 1.47657,-1.125 0.14057,-0.32811 0.16401,-0.91405 0.0703,-1.75781 l -0.0703,-1.75781 0,-33.25782 c 1.35932,-0.32807 2.17963,-0.6562 2.46093,-0.98437 0.42182,-0.42183 -0.21099,-0.86714 -1.89843,-1.33594 l -4.00782,-1.05469 0.21094,3.72657 z m -39.09375,15.1875 0.84375,1.54687 4.78125,-0.28125 9.42188,0 c -3e-5,2.57815 -0.0938,4.85159 -0.28125,6.82031 -0.0938,1.82815 -0.21097,3.28127 -0.35157,4.35938 l -18.35156,3.23437 1.125,2.95313 c 0.65624,1.54689 1.14843,2.22657 1.47656,2.03906 0.32812,-0.0937 0.63281,-0.86717 0.91407,-2.32031 l 14.55468,-3.58594 c -0.70315,4.54689 -2.39064,8.78907 -5.0625,12.72656 -2.62501,3.75 -6.07032,7.10156 -10.33593,10.05469 l 0.49218,0.70313 c 4.73436,-2.48438 8.67186,-5.76563 11.8125,-9.84375 3.3281,-4.3125 5.43748,-9.09374 6.32813,-14.34375 2.29684,-0.46874 5.17965,-1.14842 8.64844,-2.03907 2.95308,-0.79685 6.16402,-1.66404 9.63281,-2.60156 l -0.28125,-0.77344 -17.71875,3.375 c 0.0937,-1.35935 0.18747,-2.85935 0.28125,-4.5 0.0468,-0.93747 0.16403,-2.41403 0.35156,-4.42968 l 0,-1.82813 15.1875,0 c 0.70308,3e-5 1.17183,-0.11716 1.40625,-0.35156 0.23433,-0.28122 0.0468,-0.60935 -0.5625,-0.98438 l -3.9375,-2.95312 -3.51562,3.16406 -8.57813,0 0,-14.97656 0,-7.45313 c 1.68747,-0.46869 2.50778,-0.86713 2.46094,-1.19531 -3e-5,-0.28119 -0.63284,-0.56244 -1.89844,-0.84375 L 435.667,107.3112 c -3e-5,6.37505 -3e-5,11.01567 0,13.92187 -3e-5,4.54692 -3e-5,8.27348 0,11.17969 l -10.47657,0 -4.57031,-0.14062 z m -5.27344,0.63281 0.70313,0.63281 c 3.14061,-2.81247 5.74217,-5.53121 7.80469,-8.15625 2.20311,-2.76558 4.49998,-6.2812 6.89062,-10.54687 1.40623,0.0938 2.15623,-0.0468 2.25,-0.42188 0.0937,-0.32807 -0.28127,-0.72651 -1.125,-1.19531 l -3.23437,-1.61719 c -2.34377,4.9688 -4.47658,9.00004 -6.39844,12.09375 -1.92189,3.04691 -4.21876,6.11722 -6.89063,9.21094 l 0,0 z m 27.98438,-19.61719 -0.5625,0.63281 c 2.67184,2.39068 4.99215,4.71099 6.96094,6.96094 1.68745,1.92192 2.81245,3.37504 3.375,4.35938 0.79683,1.26566 1.57026,1.71097 2.32031,1.33593 0.70308,-0.32808 0.98433,-1.12496 0.84375,-2.39062 -0.37505,-1.59371 -1.45317,-3.18746 -3.23438,-4.78125 -2.01566,-1.73433 -5.25003,-3.77339 -9.70312,-6.11719 l 0,0 z"
       style="font-size:72px;font-style:normal;font-variant:normal;font-weight:normal;font-stretch:normal;text-align:start;line-height:100%;writing-mode:lr-tb;text-anchor:start"
       id="flowRoot1980"
       inkscape:connector-curvature="0" />
    <path
       d="m 211.3061,196.20029 c -1.50003,1.87504 -3.56253,4.40629 -6.1875,7.59375 l 1.6875,0.84375 12.375,0 4.21875,-8.4375 -12.09375,0 z m 9.5625,10.125 c -4e-5,2.81253 -0.18754,6.46878 -0.5625,10.96875 l 12.375,0 0,-10.96875 -11.8125,0 z m -4.5,10.96875 c 0.37496,-4.49997 0.56246,-8.15622 0.5625,-10.96875 l -9.84375,0 0,10.96875 9.28125,0 z m 10.6875,6.75 0.5625,-0.5625 c 3.37494,1.50002 5.81244,2.90626 7.3125,4.21875 1.49994,1.31251 1.68744,2.95314 0.5625,4.92187 -1.12506,1.96876 -2.15631,1.73439 -3.09375,-0.70312 -0.93756,-2.43749 -2.7188,-5.06249 -5.34375,-7.875 l 0,0 z m -15.75,-37.40625 5.34375,3.65625 -2.25,1.125 -2.25,3.09375 11.25,0 2.25,-2.8125 4.78125,4.21875 c -3.00005,0.56254 -6.18755,3.46879 -9.5625,8.71875 l 11.53125,0 1.96875,-2.8125 4.21875,3.375 -2.25,1.96875 c -6e-5,6.18753 0.0937,10.50002 0.28125,12.9375 l -3.9375,1.40625 0,-2.53125 -7.3125,0 0,15.75 c -5e-5,2.25 1.12495,3.375 3.375,3.375 l 7.03125,0 c 1.49994,0.1875 2.39056,-0.70312 2.67188,-2.67188 0.28118,-1.96874 0.51556,-4.54686 0.70312,-7.73437 l 1.125,0 c -6e-5,3.18751 0.18744,5.62501 0.5625,7.3125 0.37493,1.6875 1.31243,2.625 2.8125,2.8125 -1.31257,2.25 -3.28131,3.375 -5.90625,3.375 l -9.84375,0 c -4.12505,0 -6.18755,-1.78125 -6.1875,-5.34375 l 0,-16.875 -1.6875,0 c -2.06254,10.68751 -9.00004,18.28125 -20.8125,22.78125 l -0.5625,-0.84375 c 9.74997,-5.43749 15.56246,-12.74999 17.4375,-21.9375 l -9,0 0,1.96875 -3.9375,1.6875 c 0.18747,-4.68748 0.28122,-10.40622 0.28125,-17.15625 -1.31253,1.50003 -3.46877,3.46878 -6.46875,5.90625 l -0.84375,-0.5625 c 4.12498,-4.68747 7.4531,-9.18746 9.98438,-13.5 2.53121,-4.31245 4.26559,-7.87495 5.20312,-10.6875 l 0,0 z m -26.71875,4.21875 0.84375,-0.5625 c 3.18749,1.87505 5.48436,3.51567 6.89063,4.92187 1.40623,1.4063 2.06248,2.76567 1.96875,4.07813 -0.0938,1.31254 -0.75002,2.53129 -1.96875,3.65625 -1.21877,1.12504 -2.20314,0.28129 -2.95313,-2.53125 -0.75001,-2.81246 -2.34376,-5.99995 -4.78125,-9.5625 l 0,0 z m 9.28125,46.96875 c 1.49998,1.875 3.79685,3.60937 6.89063,5.20312 3.09372,1.59375 8.43746,2.57813 16.03125,2.95313 7.5937,0.37499 17.01556,-0.0937 28.26562,-1.40625 l 0,1.125 c -3.18757,1.31249 -4.78131,2.90624 -4.78125,4.78125 -9.18756,-1e-5 -16.5938,-0.14063 -22.21875,-0.42188 -5.62504,-0.28125 -10.26566,-1.07813 -13.92187,-2.39062 -3.65628,-1.31251 -6.4219,-3.04688 -8.29688,-5.20313 -1.87502,-2.15624 -3.23439,-3.14062 -4.07812,-2.95312 -0.84377,0.1875 -2.29689,1.26563 -4.35938,3.23437 -2.06251,1.96875 -3.56251,3.89062 -4.5,5.76563 l -4.21875,-3.65625 c 2.99999,-2.8125 6.84374,-5.15625 11.53125,-7.03125 l 0,-23.0625 -1.96875,0 c -2.43751,3e-5 -4.68751,0.28128 -6.75,0.84375 l -2.53125,-2.53125 10.6875,0 2.25,-3.09375 4.5,3.65625 -2.53125,1.6875 0,22.5 z"
       style="font-size:72px;font-style:normal;font-variant:normal;font-weight:normal;font-stretch:normal;text-align:start;line-height:100%;writing-mode:lr-tb;text-anchor:start"
       id="flowRoot1996"
       inkscape:connector-curvature="0" />
    <path
       d="m 289.33321,186.149 c 4.49996,0.89068 6.74996,1.75787 6.75,2.60157 -4e-5,0.60942 -1.31254,0.96098 -3.9375,1.05468 -0.70317,1.17193 -1.38285,2.20318 -2.03906,3.09375 l 11.60156,0 1.96875,-2.17968 c 1.54682,1.03129 2.97651,2.20317 4.28906,3.51562 0.0937,0.0938 0.14057,0.23442 0.14063,0.42188 -6e-5,0.32817 -0.44537,0.60942 -1.33594,0.84375 -0.8438,0.14067 -1.5938,0.30473 -2.25,0.49218 -1.07818,1.45317 -2.36724,2.97661 -3.86719,4.57032 -1.2188,1.31253 -2.43754,2.50785 -3.65625,3.58593 l 13.42969,0 1.89844,-2.25 c 2.48431,1.50004 3.7265,2.53129 3.72656,3.09375 -6e-5,0.51566 -0.65631,1.19535 -1.96875,2.03907 l 0,9.49218 c 0.46869,0.32815 0.89056,0.65628 1.26563,0.98438 0.28118,0.14065 0.42181,0.30471 0.42187,0.49219 -6e-5,0.75002 -0.211,1.12502 -0.63281,1.125 l -13.71094,0 0,15.39843 c -5e-5,0.65626 0.14057,1.21876 0.42188,1.6875 0.18744,0.42188 0.63276,0.72657 1.33593,0.91407 0.8437,0.14062 2.46089,0.21094 4.85157,0.21093 1.87494,1e-5 3.60931,-0.0703 5.20312,-0.21093 0.60931,-0.0469 1.05462,-0.28125 1.33594,-0.70313 0.32806,-0.32812 0.56243,-0.91406 0.70312,-1.75781 0.37494,-1.17187 0.7265,-3.93749 1.05469,-8.29688 l 1.05469,0.35157 c -0.18757,2.25001 -0.28132,4.50001 -0.28125,6.75 -7e-5,0.75 0.14056,1.35938 0.42187,1.82812 0.37494,0.60938 0.914,1.05469 1.61719,1.33594 0.37493,0.23438 0.56243,0.5625 0.5625,0.98437 -7e-5,0.14063 -0.0938,0.37501 -0.28125,0.70313 -0.28132,0.46875 -0.82038,0.84375 -1.61719,1.125 -0.84381,0.375 -2.086,0.60937 -3.72656,0.70312 -1.87506,0.1875 -3.51568,0.28125 -4.92187,0.28125 -2.71881,0 -4.73443,-0.0937 -6.04688,-0.28125 -1.26568,-0.0469 -2.25005,-0.23437 -2.95312,-0.5625 -0.75005,-0.28125 -1.31255,-0.77343 -1.6875,-1.47656 -0.2813,-0.60937 -0.42193,-1.125 -0.42188,-1.54687 l 0,-17.4375 -2.17969,0 c -0.18754,0.70314 -0.39848,1.35939 -0.63281,1.96875 -0.75004,2.39064 -1.73442,4.50001 -2.95312,6.32812 -1.35942,2.06251 -2.78911,3.82032 -4.28907,5.27344 -1.82816,1.64063 -3.98441,3.11719 -6.46875,4.42969 -2.20315,1.3125 -4.75784,2.41406 -7.66406,3.30468 l -0.91406,-1.33593 c 4.21872,-1.64063 7.35934,-3.25781 9.42187,-4.85157 1.96872,-1.40624 3.72653,-3.09374 5.27344,-5.0625 1.59371,-1.92186 2.81246,-4.05467 3.65625,-6.39843 0.51558,-1.07811 0.93746,-2.29686 1.26563,-3.65625 l -10.61719,0 0,0.21093 c -3e-5,0.4219 -0.28128,0.77346 -0.84375,1.05469 -0.65628,0.28127 -1.21878,0.4219 -1.6875,0.42188 -0.56253,2e-5 -0.84378,-0.30467 -0.84375,-0.91407 l 0,-16.66406 c -1.12503,0.70316 -2.25003,1.2891 -3.375,1.75781 l -0.77344,-1.33593 c 2.24997,-1.49997 4.03122,-2.74215 5.34375,-3.72657 1.21872,-1.0312 2.53122,-2.39058 3.9375,-4.07812 1.21872,-1.35933 2.36715,-2.95308 3.44531,-4.78125 0.79684,-1.35933 1.5234,-2.99995 2.17969,-4.92188 l 0,0 z m -7.38281,30.9375 11.03906,0 c 0.0937,-0.46872 0.18746,-0.93747 0.28125,-1.40625 0.28121,-2.29684 0.44527,-5.4609 0.49219,-9.49218 l -11.8125,0 0,10.89843 z m 15.46875,-10.89843 c -0.0469,2.8594 -0.23442,5.41409 -0.5625,7.66406 -0.14067,1.26565 -0.30474,2.34377 -0.49219,3.23437 l 14.34375,0 0,-10.89843 -13.28906,0 z m -14.55469,-2.03907 12.09375,0 c 1.7812,-1.68746 3.16402,-3.30464 4.14844,-4.85156 1.17182,-1.54683 2.03901,-2.99995 2.60156,-4.35937 l -13.21875,0 c -0.42191,0.51567 -0.86722,0.98442 -1.33594,1.40625 -1.64066,1.82816 -3.46878,3.44535 -5.48437,4.85156 -0.70316,0.51566 -1.33597,0.93754 -1.89844,1.26562 l 3.09375,1.6875 z m 20.8125,18.84375 c 1.45307,0.70315 2.92963,1.52346 4.42969,2.46094 1.03119,0.60939 1.82806,1.19533 2.39062,1.75781 0.37494,0.42189 0.65619,0.84377 0.84375,1.26563 0.0937,0.23439 0.14057,0.46876 0.14063,0.70312 -6e-5,1.50001 -0.65631,2.25001 -1.96875,2.25 -0.14069,1e-5 -0.30475,-0.0469 -0.49219,-0.14062 -0.28131,-0.14062 -0.53912,-0.42187 -0.77344,-0.84375 -0.51568,-1.03124 -1.0313,-1.85155 -1.54687,-2.46094 -0.51568,-0.70311 -1.05474,-1.33592 -1.61719,-1.89844 -0.6563,-0.74998 -1.42974,-1.38279 -2.32031,-1.89843 l 0.91406,-1.19532 z M 259.52071,186.149 c 1.45312,0.93756 2.76561,1.89849 3.9375,2.88282 1.31249,0.8438 2.34374,1.68755 3.09375,2.53125 0.89061,0.79692 1.47655,1.52348 1.75781,2.17968 0.32811,0.56255 0.49217,1.12505 0.49219,1.6875 -2e-5,0.93755 -0.14064,1.68755 -0.42187,2.25 -0.4219,0.56255 -0.96096,0.8438 -1.61719,0.84375 -0.37502,5e-5 -0.70314,-0.11714 -0.98438,-0.35156 -0.28126,-0.14058 -0.53907,-0.67964 -0.77343,-1.61719 -0.32814,-1.12495 -0.82033,-2.24995 -1.47657,-3.375 -0.60938,-1.0312 -1.31251,-2.03901 -2.10937,-3.02343 -0.75001,-0.93745 -1.78126,-1.99214 -3.09375,-3.16407 l 1.19531,-0.84375 z m -5.625,18.28125 c 1.82812,0.37504 4.45312,0.56254 7.875,0.5625 l 3.09375,0 2.46094,-2.17968 c 1.31248,1.07816 2.41404,2.10941 3.30469,3.09375 0.28123,0.28128 0.42185,0.56253 0.42187,0.84375 -2e-5,0.51565 -0.39846,0.93753 -1.19531,1.26562 -0.75002,0.28128 -1.47658,0.51566 -2.17969,0.70313 -1.40627,3.2344 -3.02345,6.51565 -4.85156,9.84375 l 4.85156,0 1.89844,-2.53125 c 1.31248,0.84377 2.3906,1.71096 3.23437,2.60156 0.28123,0.28127 0.42186,0.51565 0.42188,0.70312 -0.0938,0.32815 -0.35159,0.63284 -0.77344,0.91407 -0.4219,0.37502 -0.89065,0.65627 -1.40625,0.84375 -0.28127,2.01564 -0.67971,3.96095 -1.19531,5.83593 -0.4219,1.54689 -0.96096,3.1172 -1.61719,4.71094 -0.75002,1.64063 -1.52345,3.07032 -2.32031,4.28906 -0.42189,0.70313 -0.91408,1.35938 -1.47656,1.96875 l 0.98437,0 c -1e-5,0.65626 0.30467,1.33594 0.91406,2.03907 1.87499,1.59375 4.0078,2.81249 6.39844,3.65625 2.2031,0.98437 4.8281,1.73437 7.875,2.25 3.14059,0.46874 8.22652,0.70312 15.25781,0.70312 7.26558,0 15.21088,-0.35157 23.83594,-1.05469 l 0,1.05469 c -1.73444,0.28124 -2.85944,1.40624 -3.375,3.375 -4.92194,0.18749 -10.52349,0.28124 -16.80469,0.28125 -6.00004,-1e-5 -10.78129,-0.21095 -14.34375,-0.63281 -3.14065,-0.46876 -6.02346,-1.12501 -8.64843,-1.96875 -2.81253,-0.84376 -5.32034,-2.03907 -7.52344,-3.58594 -2.43752,-1.40625 -4.21877,-2.95312 -5.34375,-4.64062 -1.73439,1.92187 -3.51564,3.67968 -5.34375,5.27343 -10e-6,1.82812 -0.18751,2.74218 -0.5625,2.74219 -0.56251,-1e-5 -1.94532,-1.47657 -4.14844,-4.42969 1.40625,-0.5625 2.81249,-1.28906 4.21875,-2.17968 1.54687,-0.79688 2.95312,-1.75781 4.21875,-2.88282 l 0.28125,0 c 0.60936,-0.84374 1.12499,-1.68749 1.54688,-2.53125 0.70311,-1.21874 1.31248,-2.57811 1.82812,-4.07812 0.46873,-1.40624 0.93748,-3.18749 1.40625,-5.34375 0.46873,-1.92186 0.74998,-3.74998 0.84375,-5.48438 l -6.1875,0 c -0.0938,0.28127 -0.21095,0.49221 -0.35156,0.63282 -0.46876,0.56252 -1.10157,0.84376 -1.89844,0.84375 -1.17188,1e-5 -1.75782,-0.28123 -1.75781,-0.84375 -10e-6,-0.18748 0.0703,-0.42186 0.21094,-0.70313 0.28124,-0.37498 0.56249,-0.79685 0.84375,-1.26562 2.48436,-4.35935 4.49998,-8.3906 6.04687,-12.09375 l -3.09375,0 c -3.75001,3e-5 -6.02344,0.0703 -6.82031,0.21093 l -1.05469,-2.8125 z"
       style="font-size:72px;font-style:normal;font-variant:normal;font-weight:normal;font-stretch:normal;text-align:start;line-height:100%;writing-mode:lr-tb;text-anchor:start"
       id="flowRoot2004"
       inkscape:connector-curvature="0" />
    <path
       d="m 374.87962,221.6412 -6.1875,0 c -4e-5,11.43751 -5.15629,19.03126 -15.46875,22.78125 -1.12502,0.375 -1.40627,0.0937 -0.84375,-0.84375 9.37497,-5.06249 13.68746,-12.37498 12.9375,-21.9375 l -6.1875,0 0,3.9375 c -2.43753,2.25002 -3.65628,2.34377 -3.65625,0.28125 l 0,-16.875 c -2.62502,2.81253 -5.34377,4.96878 -8.15625,6.46875 -1.12502,0.18753 -1.31252,-0.18747 -0.5625,-1.125 6.18748,-5.06246 12.18747,-14.1562 18,-27.28125 l 5.625,3.375 c 0.93746,1.50005 -4e-5,1.9688 -2.8125,1.40625 -1.12504,2.06255 -2.25004,3.8438 -3.375,5.34375 l 12.65625,0 1.96875,-2.8125 4.78125,3.375 c 1.12494,1.12505 0.37494,1.5938 -2.25,1.40625 l -6.1875,9 10.125,0 1.6875,-2.25 3.9375,2.8125 c 1.12494,0.93754 0.74994,1.59379 -1.125,1.96875 l 0,12.9375 c -2.43756,2.25002 -3.65631,2.34377 -3.65625,0.28125 l 0,-2.25 -7.59375,0 0,17.15625 c -5e-5,0.75001 0.37495,1.12501 1.125,1.125 l 9.84375,0 c 1.87494,1e-5 2.90619,-0.65624 3.09375,-1.96875 l 1.6875,-8.71875 c 0.37493,-0.37498 0.65618,-0.37498 0.84375,0 l 0,8.71875 c -7e-5,0.93751 0.37493,1.59376 1.125,1.96875 1.31243,0.56251 1.31243,1.40626 0,2.53125 -0.56257,0.5625 -2.25007,0.84375 -5.0625,0.84375 l -12.9375,0 c -2.25005,0 -3.37505,-1.125 -3.375,-3.375 l 0,-18.28125 z m 22.78125,27.5625 c -0.93757,0.75 -1.78132,1.875 -2.53125,3.375 l -27,0 c -10.12503,-1e-5 -18.09377,-3.5625 -23.90625,-10.6875 l -8.71875,7.3125 c -10e-6,2.62499 -0.56251,3.09374 -1.6875,1.40625 l -2.53125,-3.9375 10.6875,-5.625 0,-22.5 -10.40625,0 0,-1.6875 9.28125,0 1.6875,-2.53125 4.5,3.09375 c 1.68748,1.12503 1.21873,1.87503 -1.40625,2.25 l 0,21.375 c 5.62498,5.4375 11.99997,8.15625 19.125,8.15625 l 32.90625,0 z m -20.53125,-50.34375 -14.0625,0 c -1.31253,2.43755 -3.00003,4.87504 -5.0625,7.3125 l 1.6875,1.96875 13.78125,0 3.65625,-9.28125 z m -6.46875,21.09375 0,-10.125 -11.53125,0 0,10.125 11.53125,0 z m 3.65625,-10.125 0,10.125 11.8125,0 0,-10.125 -11.8125,0 z m -28.125,-10.6875 c -2e-5,1.87505 -0.65627,2.81254 -1.96875,2.8125 -0.75002,4e-5 -1.40626,-0.56245 -1.96875,-1.6875 -1.87501,-3.74995 -4.50001,-6.37495 -7.875,-7.875 -0.75001,-0.56245 -0.65626,-0.8437 0.28125,-0.84375 7.68749,1.31255 11.53123,3.8438 11.53125,7.59375 l 0,0 z"
       style="font-size:72px;font-style:normal;font-variant:normal;font-weight:normal;font-stretch:normal;text-align:start;line-height:100%;writing-mode:lr-tb;text-anchor:start"
       id="flowRoot2012"
       inkscape:connector-curvature="0" />
    <path
       d="m 440.58848,205.05566 11.88282,0 c -0.0469,2.25003 -0.18755,4.35941 -0.42188,6.32812 -0.18754,1.96878 -0.46879,3.82034 -0.84375,5.55469 l -10.61719,0 0,-11.88281 z m 28.05469,11.88281 -14.41406,0 c 0.37496,-1.59372 0.67964,-3.25778 0.91406,-4.99219 0.23433,-1.73434 0.42183,-3.5859 0.5625,-5.55468 1.21871,0.0938 1.89839,-0.0468 2.03906,-0.42188 0.0937,-0.32809 -0.16411,-0.63277 -0.77343,-0.91406 l 11.67187,0 0,11.88281 z m -0.77344,-13.00781 -12.51562,0 7.52344,-8.15625 c 1.96869,0.0469 3.04682,-0.11714 3.23437,-0.49219 0.14057,-0.23433 -0.21099,-0.6562 -1.05469,-1.26562 l -3.30468,-2.32032 -2.46094,2.03907 -12.51563,0 1.96875,-3.65625 c 1.73434,-0.14058 2.6484,-0.35151 2.74219,-0.63282 0.0468,-0.32807 -0.65629,-0.79682 -2.10937,-1.40625 l -3.09375,-1.33593 c -2.15629,5.7188 -4.59378,10.64067 -7.3125,14.76562 -2.4844,3.89066 -5.62503,7.68754 -9.42188,11.39063 l 0.63281,0.5625 c 1.31248,-1.12497 2.55467,-2.2031 3.72657,-3.23438 1.21872,-1.17184 2.34372,-2.29684 3.375,-3.375 l 0.0703,12.58594 -0.0703,0.70312 c -0.0469,0.84378 0.0234,1.3594 0.21093,1.54688 0.23435,0.37502 0.84373,0.4219 1.82813,0.14062 0.60934,-0.23435 0.98434,-0.53904 1.125,-0.91406 0.14059,-0.23435 0.18747,-0.7031 0.14062,-1.40625 l 0,-1.40625 10.33594,0 c -1.31254,5.2969 -3.56254,9.70314 -6.75,13.21875 -2.81253,3.04689 -6.77346,5.88282 -11.88281,8.50781 l 0.42187,0.77344 c 5.5781,-2.39062 10.00778,-5.22655 13.28907,-8.50781 3.74996,-3.70311 6.39839,-8.36717 7.94531,-13.99219 l 0.35156,0 0,16.73438 c -4e-5,1.45313 0.23433,2.48438 0.70313,3.09375 0.4687,0.60938 1.38276,0.98438 2.74218,1.125 1.59371,0.0469 4.24214,0.0703 7.94532,0.0703 3.89056,0 6.56243,-0.0469 8.01562,-0.14063 2.10931,-0.18749 3.18744,-0.58593 3.23438,-1.19531 0.0937,-0.56249 -0.70319,-1.24218 -2.39063,-2.03906 0.0468,-1.21874 0.11712,-2.60155 0.21094,-4.14844 0.0937,-0.93749 0.23431,-2.41405 0.42187,-4.42969 l 0.21094,-1.61718 -0.77344,-0.0703 -0.35156,1.26563 c -0.70319,3.28126 -1.26569,5.46095 -1.6875,6.53906 -0.65631,1.73438 -1.45318,2.7422 -2.39062,3.02344 -0.65631,0.0938 -2.43756,0.16407 -5.34375,0.21094 -2.57818,0 -4.4063,0 -5.48438,0 -0.8438,-0.0469 -1.4063,-0.23437 -1.6875,-0.5625 -0.14067,-0.23437 -0.21098,-0.67968 -0.21094,-1.33594 l 0,-14.69531 c 1.07808,-0.0937 1.68746,-0.28123 1.82813,-0.5625 0.18745,-0.3281 -0.30474,-0.74998 -1.47656,-1.26563 l 10.89843,0 -0.0703,0.70313 c -0.0469,0.70315 -6e-5,1.14846 0.14063,1.33593 0.23431,0.28128 0.77338,0.32815 1.61718,0.14063 0.79682,-0.23435 1.28901,-0.58591 1.47657,-1.05469 0.0937,-0.28122 0.11712,-0.93747 0.0703,-1.96875 l -0.0703,-0.91406 0,-9.84375 c 0.84368,4e-5 1.42962,-0.14059 1.75781,-0.42188 0.51556,-0.42183 0.18744,-1.05465 -0.98438,-1.89843 l -2.88281,-2.10938 -1.89844,1.89844 z m -8.29687,-9.14063 -5.55469,9.14063 -14.13281,-0.0703 c 1.17184,-1.45309 2.2734,-2.92965 3.30469,-4.42969 1.03121,-1.54683 2.03902,-3.11714 3.02343,-4.71094 l 13.35938,0.0703 z m 0.84375,28.05469 -0.5625,0.63281 c 1.26557,1.40627 2.43745,2.95315 3.51562,4.64063 0.60933,0.93751 1.26557,2.06251 1.96875,3.375 l 0.14063,0.28125 c 0.65619,1.40626 1.28901,1.89845 1.89844,1.47656 0.46869,-0.37499 0.74994,-1.1953 0.84375,-2.46094 -0.23444,-1.21873 -0.961,-2.46092 -2.17969,-3.72656 -1.26568,-1.31248 -3.14068,-2.71873 -5.625,-4.21875 l 0,0 z m -38.39063,-34.59375 -0.42187,0.84375 c 1.68749,1.4063 2.83592,2.46099 3.44531,3.16406 0.93749,1.07818 1.73436,2.3438 2.39063,3.79688 0.5156,1.12505 1.12498,1.57036 1.82812,1.33594 0.70311,-0.23433 1.05467,-0.96089 1.05469,-2.17969 -0.14065,-1.45308 -0.96096,-2.74214 -2.46094,-3.86719 -0.89064,-0.6562 -2.43751,-1.49995 -4.64062,-2.53125 l -1.19532,-0.5625 z m -3.79687,14.76563 -0.28125,0.5625 c 1.68749,1.21878 3.18749,2.50785 4.5,3.86718 1.21874,1.26566 2.08592,2.34379 2.60156,3.23438 0.70311,1.03128 1.31249,1.40628 1.82813,1.125 0.46873,-0.28122 0.7031,-0.89059 0.70312,-1.82813 -0.0469,-1.49996 -0.77345,-2.74215 -2.17969,-3.72656 -1.26563,-0.89059 -3.65626,-1.96871 -7.17187,-3.23437 l 0,0 z m -1.61719,18.63281 0.5625,1.47656 4.35938,-0.14062 4.35937,0 0,15.32812 -9.35156,6.39844 2.39062,2.53125 c 1.12499,1.26562 1.78124,1.54687 1.96875,0.84375 0.14062,-0.56251 0.0937,-1.26563 -0.14062,-2.10938 l 6.46875,-6.60937 c 3.98435,4.3125 10.17185,7.125 18.5625,8.4375 6.89058,1.07812 16.9687,1.28906 30.23437,0.63281 0.18744,-0.79688 0.539,-1.52344 1.05469,-2.17969 0.60931,-0.79687 1.52337,-1.57031 2.74219,-2.32031 l -0.0703,-0.70312 c -4.92194,0.98437 -10.12506,1.68749 -15.60938,2.10937 -4.07817,0.32812 -7.71098,0.49219 -10.89844,0.49219 -4.07816,0 -7.80472,-0.32813 -11.17968,-0.98438 -2.81253,-0.51562 -5.34378,-1.21875 -7.59375,-2.10937 -1.7344,-0.75 -3.14065,-1.54687 -4.21875,-2.39063 -0.89065,-0.65624 -1.3594,-1.14843 -1.40625,-1.47656 l 0,-14.90625 c 1.40623,-0.0469 2.27341,-0.21092 2.60156,-0.49219 0.3281,-0.3281 0.0703,-0.84373 -0.77344,-1.54687 l -3.23437,-2.25 -2.25,2.10937 -4.5,0 -4.07813,-0.14062 z"
       style="font-size:72px;font-style:normal;font-variant:normal;font-weight:normal;font-stretch:normal;text-align:start;line-height:100%;writing-mode:lr-tb;text-anchor:start"
       id="flowRoot2020"
       inkscape:connector-curvature="0" />
    <path
       d="m 200.21541,312.82295 0,7.875 25.3125,0 0,-7.875 -25.3125,0 z m 35.15625,-10.40625 3.09375,-6.75 -50.625,0 c -0.18751,3.18753 -1.17188,5.25002 -2.95312,6.1875 -1.78126,0.93752 -3.04688,0.84377 -3.79688,-0.28125 -0.75,-1.12497 -0.60938,-2.0156 0.42188,-2.67188 1.03124,-0.65622 2.01561,-1.68747 2.95312,-3.09375 0.93749,-1.40621 1.68749,-3.23434 2.25,-5.48437 l 1.125,0 0,3.65625 8.4375,0 c -2e-5,-10.87496 -0.0938,-18.0937 -0.28125,-21.65625 l 3.9375,2.53125 25.3125,0 2.25,-2.8125 4.5,3.9375 -2.53125,1.6875 0,16.3125 8.4375,0 2.53125,-3.09375 5.0625,5.0625 c -1.50007,0.18753 -2.76569,0.6094 -3.79687,1.26562 -1.03132,0.65628 -2.85944,2.48441 -5.48438,5.48438 l -0.84375,-0.28125 z m -35.15625,-25.875 0,7.03125 11.53125,0 1.96875,-2.8125 4.5,3.65625 -2.53125,1.96875 0,7.59375 9.84375,0 0,-17.4375 -25.3125,0 z m 0,8.71875 0,8.71875 11.53125,0 0,-8.71875 -11.53125,0 z m -4.21875,52.03125 c 0.18748,-6.37501 0.28123,-12.65625 0.28125,-18.84375 -2e-5,-6.18749 -0.0938,-12.28123 -0.28125,-18.28125 l 4.21875,2.25 25.03125,0 2.8125,-2.8125 4.21875,4.21875 -2.8125,1.96875 0,25.3125 c 0.18745,2.99999 -1.4063,5.15624 -4.78125,6.46875 -1.12505,-3.00001 -4.12504,-4.78126 -9,-5.34375 l 0,-1.40625 c 4.87496,0.37499 7.73433,0.56249 8.57813,0.5625 0.8437,-10e-6 1.26557,-0.65626 1.26562,-1.96875 l 0,-7.03125 -25.3125,0 0,13.21875 -4.21875,1.6875 z m 4.21875,-33.1875 0,7.03125 25.3125,0 0,-7.03125 -25.3125,0 z"
       style="font-size:72px;font-style:normal;font-variant:normal;font-weight:normal;font-stretch:normal;text-align:start;line-height:100%;writing-mode:lr-tb;text-anchor:start"
       id="flowRoot2036"
       inkscape:connector-curvature="0" />
    <path
       d="m 265.2877,273.49448 4.14844,3.09375 30.375,0 2.32031,-3.09375 c 1.68744,1.07818 2.90619,2.08599 3.65625,3.02344 0.32807,0.32818 0.49213,0.6563 0.49219,0.98438 -6e-5,0.42192 -0.93756,1.14848 -2.8125,2.17968 l 0,14.34375 8.15625,0 2.03906,-2.25 c 1.54681,1.12504 2.95306,2.32035 4.21875,3.58594 0.14056,0.0938 0.21087,0.23441 0.21094,0.42188 -7e-5,0.37503 -0.44538,0.65628 -1.33594,0.84375 -0.84382,0.14065 -1.61725,0.30471 -2.32031,0.49218 -0.65632,0.93753 -1.50007,1.87503 -2.53125,2.8125 -0.98444,1.07815 -2.01569,2.01565 -3.09375,2.8125 l -1.05469,-0.77343 c 0.98431,-1.12498 1.80463,-2.15623 2.46094,-3.09375 0.65619,-1.03122 1.12493,-1.96872 1.40625,-2.8125 l -54.5625,0 c -0.0938,0.93753 -0.21095,1.85159 -0.35156,2.74218 -0.18751,1.45316 -0.51564,2.71878 -0.98438,3.79688 -0.32813,0.7969 -0.75001,1.50002 -1.26562,2.10937 -0.42189,0.56253 -0.8672,0.93753 -1.33594,1.125 -0.42188,0.18752 -0.79688,0.28127 -1.125,0.28125 -1.07813,2e-5 -1.61719,-0.35154 -1.61719,-1.05468 0,-0.42186 0.28125,-0.98436 0.84375,-1.6875 1.35937,-1.59373 2.32031,-2.9531 2.88281,-4.07813 0.60937,-1.0781 1.10156,-2.29684 1.47657,-3.65625 0.37499,-1.31247 0.60936,-3.04684 0.70312,-5.20312 l 0.84375,0 0,3.58593 8.71875,0 0,-15.67968 c -2e-5,-1.82808 -0.18752,-3.44526 -0.5625,-4.85157 l 0,0 z m 3.65625,20.53125 11.8125,0 0,-11.8125 4.14844,2.32032 15.46875,0 0,-5.90625 -31.42969,0 0,15.39843 z m 15.1875,0 16.24219,0 0,-7.52343 -16.24219,0 0,7.52343 z m -17.22656,5.90625 3.9375,2.60157 27.91406,0 2.25,-3.09375 c 1.64057,0.9844 2.85932,1.96877 3.65625,2.95312 0.37494,0.32815 0.56244,0.63284 0.5625,0.91406 -6e-5,0.46878 -0.93756,1.24221 -2.8125,2.32032 l 0,26.92968 c -5e-5,1.59375 -0.37505,2.78906 -1.125,3.58594 -0.6563,0.79687 -1.54693,1.40624 -2.67187,1.82813 -1.0313,0.46873 -1.92193,0.70311 -2.67188,0.70312 l -0.0703,-0.98437 c -0.14067,-0.60939 -0.37505,-1.0547 -0.70313,-1.33594 -0.56254,-0.56251 -1.47661,-1.0547 -2.74218,-1.47656 -1.45317,-0.51564 -3.11723,-0.84376 -4.99219,-0.98438 l 0,-1.61719 c 2.90621,0.70312 5.55464,1.05468 7.94531,1.05469 1.54683,-1e-5 2.57808,-0.14063 3.09375,-0.42187 0.56245,-0.28126 0.8437,-0.98438 0.84375,-2.10938 l 0,-13.5 c -3.0938,1.40626 -5.85942,2.50782 -8.29687,3.30469 -3.04692,1.21875 -6.00004,2.22657 -8.85938,3.02344 -2.57816,0.84375 -5.2969,1.59375 -8.15625,2.25 -0.51565,1.64062 -0.91409,2.46093 -1.19531,2.46093 -0.32815,0 -1.31253,-1.59375 -2.95313,-4.78125 -0.18752,1.50001 -0.51564,2.90625 -0.98437,4.21875 -0.51565,1.54688 -1.21877,3 -2.10938,4.35938 -0.70314,1.17187 -1.66408,2.29687 -2.88281,3.375 -0.98439,0.98436 -2.39064,1.96874 -4.21875,2.95312 l -0.91406,-0.5625 c 1.17186,-0.84376 2.17967,-1.75782 3.02344,-2.74218 0.84373,-0.89064 1.54686,-1.82814 2.10937,-2.8125 0.65623,-1.12501 1.21873,-2.41407 1.6875,-3.86719 0.51561,-1.64063 0.89061,-3.35156 1.125,-5.13281 0.32811,-2.34375 0.49217,-4.99218 0.49219,-7.94532 0.0469,-6.42185 -0.0469,-11.5781 -0.28125,-15.46875 l 0,0 z m 3.09375,22.78125 c 3.65622,-0.46874 6.89059,-1.03124 9.70312,-1.6875 2.85934,-0.46874 5.99997,-1.21874 9.42188,-2.25 2.99995,-0.79686 6.39839,-1.87499 10.19531,-3.23437 l 0,-11.03906 -28.75781,0 0,2.67187 c 2.71872,0.4219 5.34372,0.93752 7.875,1.54688 2.90621,0.75001 5.0859,1.40626 6.53906,1.96875 1.49996,0.60939 2.50777,1.07814 3.02344,1.40625 0.56246,0.42189 1.03121,0.84376 1.40625,1.26562 0.23433,0.28126 0.35152,0.60939 0.35156,0.98438 -4e-5,1.07813 -0.49223,1.61719 -1.47656,1.61718 -0.28129,10e-6 -0.67973,-0.11717 -1.19531,-0.35156 -0.51567,-0.18749 -1.12504,-0.51561 -1.82813,-0.98437 -1.17191,-0.60937 -2.29691,-1.17187 -3.375,-1.6875 -1.26566,-0.56249 -2.81253,-1.14843 -4.64062,-1.75782 -1.68753,-0.60935 -3.91409,-1.35935 -6.67969,-2.25 l 0,6.46875 c -2e-5,2.39064 -0.16409,4.66407 -0.49219,6.82032 -2e-5,0.1875 -0.0235,0.35156 -0.0703,0.49218 l 0,0 z"
       style="font-size:72px;font-style:normal;font-variant:normal;font-weight:normal;font-stretch:normal;text-align:start;line-height:100%;writing-mode:lr-tb;text-anchor:start"
       id="flowRoot2044"
       inkscape:connector-curvature="0" />
    <path
       d="m 336.82787,289.91247 c 0.37499,-0.74996 0.74999,-0.74996 1.125,0 l 0.84375,3.09375 8.71875,0 0,-19.125 4.21875,2.8125 23.34375,0 1.6875,-1.96875 3.65625,2.53125 c 1.12495,0.93755 0.74995,1.5938 -1.125,1.96875 l 0,13.78125 9,0 1.96875,-2.25 5.625,4.5 c 0.93743,1.50003 -7e-5,2.15628 -2.8125,1.96875 -1.12506,3e-5 -2.06256,0.46878 -2.8125,1.40625 l -4.21875,5.0625 c -0.56256,0.37503 -0.84381,0.18753 -0.84375,-0.5625 l 3.375,-8.4375 -49.78125,0 c -0.37501,6.56253 -2.34376,9.84378 -5.90625,9.84375 -1.125,3e-5 -1.6875,-0.56247 -1.6875,-1.6875 0,-0.93747 0.5625,-1.78122 1.6875,-2.53125 2.62499,-2.24997 3.93749,-5.71871 3.9375,-10.40625 l 0,0 z m 14.34375,30.09375 0,16.59375 c -2.43752,2.24999 -3.65627,2.34374 -3.65625,0.28125 l 0,-38.25 4.21875,2.53125 22.78125,0 1.6875,-1.96875 3.65625,2.53125 c 1.12495,0.93753 0.74995,1.59378 -1.125,1.96875 l 0,27.5625 c -5e-5,2.0625 -0.6563,3.65625 -1.96875,4.78125 -0.75005,0.74999 -1.68755,1.12499 -2.8125,1.125 -0.75005,-10e-6 -1.12504,-0.37501 -1.125,-1.125 -4e-5,-0.9375 -0.56254,-1.59375 -1.6875,-1.96875 l -3.65625,-0.84375 c -0.75004,-0.375 -0.75004,-0.75 0,-1.125 l 5.625,0 c 1.31245,0 1.9687,-0.65625 1.96875,-1.96875 l 0,-10.125 -23.90625,0 z m 11.8125,-34.03125 0,7.03125 12.65625,0 0,-7.03125 -12.65625,0 z m -3.65625,-3.9375 4.21875,2.25 12.09375,0 0,-5.90625 -24.46875,0 0,14.625 8.15625,0 0,-10.96875 z m 15.75,20.8125 -23.90625,0 0,6.75 23.90625,0 0,-6.75 z m 0,8.4375 -23.90625,0 0,7.03125 23.90625,0 0,-7.03125 z"
       style="font-size:72px;font-style:normal;font-variant:normal;font-weight:normal;font-stretch:normal;text-align:start;line-height:100%;writing-mode:lr-tb;text-anchor:start"
       id="flowRoot2052"
       inkscape:connector-curvature="0" />
    <path
       d="m 430.23606,302.65781 0,29.03906 -0.0703,1.05469 c -0.0938,0.75 -0.0938,1.21875 0,1.40625 0.1406,0.23437 0.56247,0.28124 1.26562,0.14063 1.2656,-0.18751 2.08591,-0.63282 2.46094,-1.33594 0.23435,-0.37501 0.30466,-1.03126 0.21094,-1.96875 l 0,-0.84375 0,-11.74219 23.13281,0 0,9 c -0.0469,0.65625 -0.23442,1.125 -0.5625,1.40625 -0.32817,0.23438 -0.93755,0.375 -1.82813,0.42188 l -7.73437,-0.49219 0.0703,0.77344 c 2.48434,0.56249 4.17183,1.17187 5.0625,1.82812 0.84371,0.60937 1.35933,1.57031 1.54688,2.88281 2.7187,-0.46875 4.61713,-1.28906 5.69531,-2.46093 0.93745,-0.98438 1.4062,-2.36719 1.40625,-4.14844 l 0,-25.17188 c 1.49995,-0.0469 2.29682,-0.28122 2.39062,-0.70312 0.0937,-0.37497 -0.35161,-0.93747 -1.33593,-1.6875 l -3.09375,-2.03906 -2.74219,2.25 -22.14844,0 -4.00781,-2.03907 0.28125,4.42969 z m 27,-1.26562 0,6.96093 -23.13281,0 0,-6.96093 23.13281,0 z m -26.71875,-9.77344 -8.64844,0 0,-0.14063 c 0.0469,-0.60933 0.0703,-1.12496 0.0703,-1.54687 -10e-6,-0.70309 -0.0469,-1.40621 -0.14062,-2.10938 l -0.63281,0.0703 c -0.42189,2.25003 -1.10158,4.12503 -2.03907,5.625 -0.51563,0.89065 -1.33594,1.85159 -2.46093,2.88281 -0.65626,0.65628 -1.10157,1.1719 -1.33594,1.54687 -0.37501,0.56253 -0.56251,1.21878 -0.5625,1.96875 -0.0938,1.64066 0.0234,2.69534 0.35156,3.16407 0.32812,0.4219 0.84374,0.35158 1.54688,-0.21094 1.31249,-1.31247 2.39061,-2.9531 3.23437,-4.92188 0.46874,-1.07809 0.93749,-2.55465 1.40625,-4.42968 l 0.28125,-0.77344 50.34375,0 -3.72656,7.38281 0.91406,0.42188 6.46875,-6.25782 c 1.59368,-0.0468 2.57806,-0.2109 2.95313,-0.49218 0.37493,-0.28122 0.14055,-0.74997 -0.70313,-1.40625 l -3.86719,-3.23438 -2.74218,2.46094 -10.19532,0 0,-15.32813 c 1.49995,6e-5 2.39057,-0.16401 2.67188,-0.49218 0.23432,-0.32808 -0.14068,-0.89058 -1.125,-1.6875 l -2.95313,-2.25 -2.8125,2.17968 -22.92187,0 -3.72656,-2.74218 0.35156,4.85156 0,15.46875 z m 3.30469,0 0,-16.45313 23.97656,0 0,6.75 -10.54688,0 -3.58593,-2.25 0.21093,2.88282 0,9.07031 -10.05468,0 z m 13.07812,-8.64844 10.89844,0 0,8.64844 -10.89844,0 0,-8.64844 z m 10.33594,26.57813 0,7.66406 -23.13281,0 0,-7.66406 23.13281,0 z"
       style="font-size:72px;font-style:normal;font-variant:normal;font-weight:normal;font-stretch:normal;text-align:start;line-height:100%;writing-mode:lr-tb;text-anchor:start"
       id="flowRoot2060"
       inkscape:connector-curvature="0" />
    <path
       d="m 0.01520529,95.13737 c 489.28503471,0 489.28503471,0 489.28503471,0"
       style="fill:none;stroke:#000000;stroke-width:0.99525201px;stroke-linecap:butt;stroke-linejoin:miter;stroke-opacity:1"
       id="path2106"
       inkscape:connector-curvature="0" />
    <path
       d="m 0.52351952,181.80744 c 489.29546048,0 489.29546048,0 489.29546048,0"
       style="fill:none;stroke:#000000;stroke-width:0.99424642px;stroke-linecap:butt;stroke-linejoin:miter;stroke-opacity:1"
       id="path2108"
       inkscape:connector-curvature="0" />
    <path
       d="m 0.52351953,263.52827 c 489.29546047,0 489.29546047,0 489.29546047,0"
       style="fill:none;stroke:#000000;stroke-width:0.99424654px;stroke-linecap:butt;stroke-linejoin:miter;stroke-opacity:1"
       id="path2110"
       inkscape:connector-curvature="0" />
    <path
       d="m 0.53285037,348.22627 c 489.54820963,0 489.54820963,0 489.54820963,0"
       style="fill:none;stroke:#000000;stroke-width:1.00399995;stroke-linecap:butt;stroke-linejoin:miter;stroke-miterlimit:4;stroke-opacity:1;stroke-dasharray:none"
       id="path2112"
       inkscape:connector-curvature="0" />
    <path
       d="m 404.09024,0.525518 c 0,347.735502 0,347.735502 0,347.735502"
       style="fill:none;stroke:#000000;stroke-width:0.99032438px;stroke-linecap:butt;stroke-linejoin:miter;stroke-opacity:1"
       id="path2116"
       inkscape:connector-curvature="0" />
    <path
       d="m 326.30849,0.496723 c 0,347.732837 0,347.732837 0,347.732837"
       style="fill:none;stroke:#000000;stroke-width:0.99315411px;stroke-linecap:butt;stroke-linejoin:miter;stroke-opacity:1"
       id="path2118"
       inkscape:connector-curvature="0" />
    <path
       d="m 247.51659,44.052309 c 0,304.146961 0,304.146961 0,304.146961"
       style="fill:none;stroke:#000000;stroke-width:0.92617863px;stroke-linecap:butt;stroke-linejoin:miter;stroke-opacity:1"
       id="path2120"
       inkscape:connector-curvature="0" />
    <path
       d="m 176.80592,0.49538 c 0,347.67385 0,347.67385 0,347.67385"
       style="fill:none;stroke:#000000;stroke-width:0.99165016px;stroke-linecap:butt;stroke-linejoin:miter;stroke-opacity:1"
       id="path2122"
       inkscape:connector-curvature="0" />
    <path
       d="m 489.52922,0.476322 c 0,347.629198 0,347.629198 0,347.629198"
       style="fill:none;stroke:#000000;stroke-width:1.10354424px;stroke-linecap:butt;stroke-linejoin:miter;stroke-opacity:1"
       id="path2126"
       inkscape:connector-curvature="0" />
    <path
       d="m 375.08542,145.55925 c 3.86424,9.71044 -2.73484,20.1302 -14.73008,23.25839 -11.99525,3.1282 -24.86671,-2.21391 -28.73095,-11.92435 -3.86424,-9.71044 2.73483,-20.1302 14.73008,-23.25839 11.88349,-3.09905 24.62446,2.09395 28.62618,11.66754"
       style="fill:none;stroke:#ff0000;stroke-opacity:0.48854963"
       id="path1956"
       inkscape:connector-curvature="0" />
    <path
       d="m 455.63972,113.30196 c 3.49622,7.23522 -2.47438,14.99897 -13.32722,17.32978 -10.85284,2.33081 -22.49845,-1.64959 -25.99467,-8.88481 -3.49622,-7.23523 2.47438,-14.99897 13.32722,-17.32978 10.75173,-2.3091 22.27927,1.56019 25.89988,8.69346"
       style="fill:none;stroke:#ff0000;stroke-opacity:0.48854963"
       id="path1958"
       inkscape:connector-curvature="0" />
    <path
       d="m 456.38192,143.35591 c 3.43488,9.13923 -2.43097,18.94606 -13.09341,21.89025 -10.66244,2.94418 -22.10374,-2.08369 -25.53862,-11.22292 -3.43488,-9.13924 2.43096,-18.94607 13.0934,-21.89025 10.56311,-2.91676 21.88841,1.97077 25.4455,10.98121"
       style="fill:none;stroke:#ff0000;stroke-opacity:0.48854963"
       id="path1962"
       inkscape:connector-curvature="0" />
    <path
       d="m 275.57333,214.75084 c 2.08546,11.61444 -1.47594,24.07729 -7.94957,27.81885 -6.47362,3.74157 -13.42013,-2.64801 -15.50559,-14.26246 -2.08547,-11.61444 1.47594,-24.07729 7.94957,-27.81885 6.41331,-3.70671 13.28939,2.50452 15.44905,13.95529"
       style="fill:none;stroke:#ff0000;stroke-opacity:0.48854963"
       id="path1964"
       inkscape:connector-curvature="0" />
    <path
       d="m 378.80495,213.20418 c 0.98139,4.95041 -0.69456,10.26245 -3.74098,11.85721 -3.04641,1.59477 -6.31535,-1.12866 -7.29675,-6.07908 -0.98139,-4.95042 0.69457,-10.26245 3.74098,-11.85722 3.01803,-1.5799 6.25383,1.06751 7.27014,5.94816"
       style="fill:none;stroke:#ff0000;stroke-opacity:0.48854962"
       id="path1966"
       inkscape:connector-curvature="0" />
    <path
       d="m 396.00743,231.07216 c 1.6561,4.76002 -1.17207,9.86774 -6.31289,11.40117 -5.14082,1.53343 -10.65717,-1.08525 -12.31327,-5.84527 -1.6561,-4.76002 1.17207,-9.86774 6.31289,-11.40117 5.09293,-1.51914 10.55335,1.02644 12.26837,5.71938"
       style="fill:none;stroke:#ff0000;stroke-opacity:0.48854962"
       id="path2857"
       inkscape:connector-curvature="0" />
    <path
       d="m 435.73018,208.32499 c 2.1468,18.27847 -1.51936,37.89213 -8.18338,43.7805 -6.66403,5.88837 -13.81484,-4.16737 -15.96164,-22.44584 -2.1468,-18.27847 1.51935,-37.89213 8.18338,-43.7805 6.60194,-5.83351 13.68025,3.94155 15.90343,21.96243"
       style="fill:none;stroke:#ff0000;stroke-opacity:0.48854963"
       id="path2859"
       inkscape:connector-curvature="0" />
    <path
       d="m 222.4905,284.98551 c 2.69883,5.52162 -1.91005,11.44658 -10.28768,13.22536 -8.37763,1.77877 -17.36723,-1.2589 -20.06606,-6.78052 -2.69883,-5.52162 1.91004,-11.44658 10.28768,-13.22536 8.29958,-1.7622 17.19803,1.19068 19.99289,6.63449"
       style="fill:none;stroke:#ff0000;stroke-opacity:0.48854963"
       id="path2861"
       inkscape:connector-curvature="0" />
    <path
       d="m 303.57752,311.91814 c 3.00552,7.80643 -2.12709,16.1831 -11.45673,18.69792 -9.32963,2.51483 -19.34077,-1.77981 -22.34629,-9.58624 -3.00552,-7.80643 2.12709,-16.1831 11.45673,-18.69792 9.24272,-2.4914 19.15236,1.68337 22.26481,9.37979"
       style="fill:none;stroke:#ff0000;stroke-opacity:0.48854963"
       id="path2863"
       inkscape:connector-curvature="0" />
    <path
       d="m 269.94972,331.59306 c 1.4721,5.14082 -1.04184,10.65716 -5.61146,12.31326 -4.56961,1.65611 -9.47303,-1.17207 -10.94512,-6.31289 -1.47209,-5.14082 1.04184,-10.65716 5.61146,-12.31326 4.52705,-1.64068 9.38075,1.10855 10.90521,6.17693"
       style="fill:none;stroke:#ff0000;stroke-opacity:0.48854963"
       id="path2865"
       inkscape:connector-curvature="0" />
    <path
       d="m 34.1464,142.95896 c -3e-5,4.25001 -1.19534,7.57422 -3.58594,9.97266 -2.39064,2.39843 -5.71095,3.59765 -9.96093,3.59765 -4.42189,0 -7.78907,-1.15234 -10.10157,-3.45703 -2.3125,-2.30468 -3.46875,-5.67577 -3.46875,-10.11328 l 0,-21.82031 0,0 2.32032,0 2.34375,0 0,0 0,21.46875 c -10e-6,3.20313 0.7578,5.63672 2.27343,7.30078 1.51562,1.66406 3.72655,2.49609 6.63282,2.49609 2.90623,0 5.11326,-0.83203 6.62109,-2.49609 1.50779,-1.66406 2.26169,-4.09765 2.26172,-7.30078 l 0,-21.46875 0,0 2.32031,0 2.34375,0 0,0 0,21.82031 z m 16.03125,2.32031 -10.38281,0 0,-3.51562 10.38281,0 0,-10.38282 3.51563,0 0,10.38282 10.38281,0 0,3.51562 -10.38281,0 0,10.38281 -3.51563,0 0,-10.38281 z m 40.45313,-0.53906 c -3e-5,3.45313 -1.08206,6.27735 -3.2461,8.47266 -2.16408,2.19531 -4.94142,3.29296 -8.33203,3.29296 -3.37501,0 -6.08594,-0.84375 -8.13281,-2.53125 -2.04688,-1.68749 -3.1875,-4.01562 -3.42188,-6.98437 l 0,0 4.38282,0 0,0 c 0.23437,1.87501 0.99218,3.32422 2.27343,4.34766 1.28125,1.02344 2.97656,1.53515 5.08594,1.53515 2.03124,0 3.69139,-0.71093 4.98047,-2.13281 1.28904,-1.42187 1.93357,-3.24999 1.93359,-5.48438 -2e-5,-2.34373 -0.67189,-4.20701 -2.01562,-5.58984 -1.34377,-1.38279 -3.16408,-2.0742 -5.46094,-2.07422 -1.23438,2e-5 -2.4336,0.29689 -3.59765,0.89063 -1.16407,0.59376 -2.04298,1.35157 -2.63672,2.27343 l -3.5625,-0.23437 2.4375,-18 0,0 17.48437,0 0,4.10156 -14.32031,0 0,0 -1.45313,9.23438 0,0 0.14063,-0.0937 c 1.85937,-1.28123 3.8203,-1.92186 5.88281,-1.92188 3.54686,2e-5 6.36717,0.9844 8.46094,2.95313 2.0781,1.95314 3.11716,4.60157 3.11719,7.94531 l 0,0 z m 26.39062,-12.96094 c -2e-5,2.4844 -0.63674,4.52736 -1.91015,6.12891 -1.27346,1.60158 -3.66799,3.37111 -7.1836,5.30859 -3.81251,2.09376 -6.41407,4.00782 -7.80469,5.74219 -0.57813,0.75 -1.05469,1.59375 -1.42968,2.53125 l 0,0 18.32812,0 0,4.10156 -23.10937,0 0,0 c 0,-3.54687 0.88281,-6.44921 2.64843,-8.70703 1.76562,-2.2578 5.07812,-4.72264 9.9375,-7.39453 2.35936,-1.31248 3.96874,-2.51561 4.82813,-3.60938 0.85936,-1.09373 1.28904,-2.49997 1.28906,-4.21875 -2e-5,-1.79685 -0.64064,-3.26559 -1.92187,-4.40625 -1.28127,-1.14059 -2.92189,-1.7109 -4.92188,-1.71093 -2.09376,3e-5 -3.73829,0.71487 -4.93359,2.14453 -1.19532,1.42971 -1.83204,3.45705 -1.91016,6.08203 l 0,0 -4.10156,0 0,0 c -0.0625,-3.71873 0.92968,-6.63669 2.97656,-8.75391 2.04687,-2.11715 4.89843,-3.17574 8.55469,-3.17578 3.12498,4e-5 5.68748,0.92972 7.6875,2.78906 1.98435,1.84378 2.97654,4.22659 2.97656,7.14844 l 0,0 z m 26.71875,0 c -2e-5,2.4844 -0.63674,4.52736 -1.91015,6.12891 -1.27346,1.60158 -3.66799,3.37111 -7.1836,5.30859 -3.81251,2.09376 -6.41407,4.00782 -7.80469,5.74219 -0.57813,0.75 -1.05469,1.59375 -1.42968,2.53125 l 0,0 18.32812,0 0,4.10156 -23.10937,0 0,0 c 0,-3.54687 0.88281,-6.44921 2.64843,-8.70703 1.76562,-2.2578 5.07812,-4.72264 9.9375,-7.39453 2.35936,-1.31248 3.96874,-2.51561 4.82813,-3.60938 0.85935,-1.09373 1.28904,-2.49997 1.28906,-4.21875 -2e-5,-1.79685 -0.64064,-3.26559 -1.92187,-4.40625 -1.28127,-1.14059 -2.92189,-1.7109 -4.92188,-1.71093 -2.09376,3e-5 -3.73829,0.71487 -4.93359,2.14453 -1.19532,1.42971 -1.83204,3.45705 -1.91016,6.08203 l 0,0 -4.10156,0 0,0 c -0.0625,-3.71873 0.92968,-6.63669 2.97656,-8.75391 2.04687,-2.11715 4.89843,-3.17574 8.55469,-3.17578 3.12498,4e-5 5.68748,0.92972 7.6875,2.78906 1.98435,1.84378 2.97654,4.22659 2.97656,7.14844 l 0,0 z m 18.44531,15.72656 -14.88281,0 0,-1.96875 0,-1.96875 15.60938,-21.70312 1.75781,0 1.75781,0 0,22.03125 0,0 4.78125,0 0,3.60937 -4.78125,0 0,0 0,8.08594 -4.24219,0 0,-8.08594 0,0 z m 0,-3.60937 0,0 0,-15.39844 0,0 0,0 -10.75781,15.07031 -0.23437,0.32813 0,0 10.99218,0 z"
       style="font-size:48px;font-style:normal;font-variant:normal;font-weight:normal;font-stretch:normal;text-align:start;line-height:100%;writing-mode:lr-tb;text-anchor:start"
       id="flowRoot2222"
       inkscape:connector-curvature="0" />
    <path
       d="m 34.34644,224.95996 c -3e-5,4.25001 -1.19534,7.57422 -3.58594,9.97266 -2.39064,2.39843 -5.71095,3.59765 -9.96093,3.59765 -4.42189,0 -7.78907,-1.15234 -10.10157,-3.45703 -2.3125,-2.30468 -3.46875,-5.67577 -3.46875,-10.11328 l 0,-21.82031 0,0 2.32032,0 2.34375,0 0,0 0,21.46875 c -10e-6,3.20313 0.7578,5.63672 2.27343,7.30078 1.51562,1.66406 3.72655,2.49609 6.63282,2.49609 2.90623,0 5.11326,-0.83203 6.62109,-2.49609 1.50779,-1.66406 2.26169,-4.09765 2.26172,-7.30078 l 0,-21.46875 0,0 2.32031,0 2.34375,0 0,0 0,21.82031 z m 16.03125,2.32031 -10.38281,0 0,-3.51562 10.38281,0 0,-10.38282 3.51563,0 0,10.38282 10.38281,0 0,3.51562 -10.38281,0 0,10.38281 -3.51563,0 0,-10.38281 z m 28.21875,11.25 c -2.98438,0 -5.36329,-0.80078 -7.13672,-2.40234 -1.77344,-1.60156 -2.72266,-3.80859 -2.84765,-6.6211 l 0,0 4.07812,0 0,0 c 0.17187,1.73439 0.76953,3.07423 1.79297,4.01954 1.02343,0.94531 2.39452,1.41797 4.11328,1.41796 2.53124,1e-5 4.48436,-1.41405 5.85938,-4.24218 0.99998,-2.10937 1.64842,-4.8828 1.94531,-8.32032 l 0,0 c -2.09377,2.57814 -4.69533,3.8672 -7.80469,3.86719 -3.12501,1e-5 -5.64454,-1.02733 -7.55859,-3.08203 -1.91407,-2.05467 -2.8711,-4.7617 -2.8711,-8.12109 0,-3.35935 1.03906,-6.06247 3.11719,-8.10938 2.07812,-2.04684 4.82031,-3.07028 8.22656,-3.07031 3.62499,3e-5 6.41795,1.28519 8.37891,3.85547 1.96092,2.57034 2.94138,6.22268 2.94141,10.95703 -3e-5,6.35939 -1.06253,11.25782 -3.1875,14.69531 -2.12502,3.4375 -5.14064,5.15625 -9.04688,5.15625 l 0,0 z m 7.3125,-23.48437 c -2e-5,-2.17185 -0.6172,-3.94529 -1.85156,-5.32032 -1.23439,-1.37497 -2.82814,-2.06247 -4.78125,-2.0625 -1.95314,3e-5 -3.54688,0.68753 -4.78125,2.0625 -1.23438,1.37503 -1.85157,3.14847 -1.85156,5.32032 -1e-5,2.17189 0.61718,3.94923 1.85156,5.33203 1.23437,1.38283 2.82811,2.07423 4.78125,2.07422 1.95311,1e-5 3.54686,-0.6953 4.78125,-2.08594 1.23436,-1.37498 1.85154,-3.14842 1.85156,-5.32031 l 0,0 z m 20.29688,23.46093 c -3.68751,0 -6.53517,-1.5 -8.54297,-4.5 -2.00782,-2.99999 -3.01172,-7.27342 -3.01172,-12.82031 0,-5.54685 1.0039,-9.82419 3.01172,-12.83203 2.0078,-3.00778 4.85546,-4.51168 8.54297,-4.51172 3.71873,4e-5 6.5781,1.50394 8.57812,4.51172 1.99998,3.00784 2.99998,7.28518 3,12.83203 -2e-5,5.54689 -1.00002,9.82032 -3,12.82031 -2.00002,3 -4.85939,4.5 -8.57812,4.5 l 0,0 z m 0,-3.79687 c 2.37498,0 4.15623,-1.125 5.34375,-3.375 1.18748,-2.24999 1.77341,-5.6328 1.75781,-10.14844 0.0156,-4.5156 -0.57033,-7.90232 -1.75781,-10.16015 -1.18752,-2.25779 -2.96877,-3.38669 -5.34375,-3.38672 -2.35939,3e-5 -4.12501,1.12893 -5.29688,3.38672 -1.17188,2.25783 -1.76563,5.64455 -1.78125,10.16015 0.0156,4.51564 0.60937,7.89845 1.78125,10.14844 1.17187,2.25 2.93749,3.375 5.29688,3.375 l 0,0 z m 32.88281,-21.70313 c -2e-5,-1.59372 -0.60549,-2.8945 -1.81641,-3.90234 -1.21095,-1.00778 -2.76173,-1.51169 -4.65234,-1.51172 -2.00001,3e-5 -3.53126,0.61331 -4.59375,1.83985 -1.06251,1.22658 -1.64844,3.05861 -1.75781,5.49609 l 0,0 -4.10157,0 0,0 c 0,-3.53122 0.92578,-6.26169 2.77735,-8.19141 1.85155,-1.92965 4.47265,-2.89449 7.86328,-2.89453 3.20311,4e-5 5.78514,0.80082 7.74609,2.40235 1.96092,1.60159 2.94139,3.71487 2.94141,6.33984 -2e-5,2.6094 -0.9844,4.71877 -2.95313,6.32812 -0.37502,0.31252 -0.78127,0.59377 -1.21875,0.84375 l 0,0 c 0.81248,0.3594 1.53123,0.78908 2.15625,1.28907 2.10936,1.65626 3.16404,3.89063 3.16407,6.70312 -3e-5,3.15626 -1.09378,5.73829 -3.28125,7.7461 -2.18752,2.00781 -5.00002,3.01171 -8.4375,3.01171 -3.78126,0 -6.63282,-0.91015 -8.55469,-2.73046 -1.92188,-1.82031 -2.96875,-4.60547 -3.14063,-8.35547 l 0,0 4.42969,0 0,0 c 0.25,2.625 0.94531,4.50391 2.08594,5.63672 1.14062,1.13281 2.91405,1.69922 5.32031,1.69921 2.07811,1e-5 3.78124,-0.59765 5.10938,-1.79296 1.3281,-1.19531 1.99216,-2.73047 1.99218,-4.60547 -2e-5,-1.96874 -0.64064,-3.53124 -1.92187,-4.6875 -1.09377,-0.99999 -2.50002,-1.56249 -4.21875,-1.6875 -0.79689,-0.0469 -1.55079,-0.0703 -2.26172,-0.0703 -0.71095,2e-5 -1.1836,0.0313 -1.41797,0.0937 l 0,-3.70312 c 0.34374,0.0781 0.87499,0.11721 1.59375,0.11719 0.71874,2e-5 1.42968,-0.0469 2.13281,-0.14063 1.35936,-0.17185 2.46093,-0.61717 3.30469,-1.33594 1.14061,-0.93747 1.71092,-2.24997 1.71094,-3.9375 l 0,0 z m 26.39062,6.72657 0,0 c 0.90623,0.40626 1.73436,0.91408 2.48438,1.52343 2.10935,1.70314 3.16404,3.95314 3.16406,6.75 -2e-5,3.15626 -1.05471,5.69532 -3.16406,7.61719 -2.1094,1.92188 -4.89064,2.88281 -8.34375,2.88281 -3.45314,0 -6.23048,-0.96093 -8.33203,-2.88281 -2.10157,-1.92187 -3.15235,-4.46093 -3.15235,-7.61719 0,-2.79686 1.05469,-5.05467 3.16407,-6.77343 0.73437,-0.59374 1.54687,-1.08592 2.4375,-1.47657 l 0,0 c -0.56251,-0.31248 -1.10157,-0.65623 -1.61719,-1.03125 -1.89063,-1.46873 -2.83594,-3.40622 -2.83594,-5.8125 0,-2.71872 0.94922,-4.91012 2.84766,-6.57421 1.89843,-1.66403 4.39452,-2.49606 7.48828,-2.4961 3.09373,4e-5 5.58982,0.83207 7.48828,2.4961 1.89842,1.66409 2.84763,3.85549 2.84766,6.57421 -3e-5,2.40628 -0.95315,4.34377 -2.85938,5.8125 -0.50002,0.39065 -1.03908,0.72658 -1.61719,1.00782 l 0,0 z m -5.85937,-1.75782 c 1.71873,2e-5 3.12498,-0.48044 4.21875,-1.4414 1.09373,-0.96092 1.64061,-2.1992 1.64062,-3.71485 -1e-5,-1.51559 -0.54689,-2.75778 -1.64062,-3.72656 -1.09377,-0.96872 -2.50002,-1.45309 -4.21875,-1.45312 -1.71876,3e-5 -3.12501,0.4844 -4.21875,1.45312 -1.09376,0.96878 -1.64063,2.21097 -1.64063,3.72656 0,1.51565 0.54687,2.75784 1.64063,3.72657 1.09374,0.95314 2.49999,1.4297 4.21875,1.42968 l 0,0 z m 0,3.65625 c -2.06251,2e-5 -3.7461,0.6133 -5.05078,1.83985 -1.3047,1.22657 -1.95704,2.80079 -1.95703,4.72265 -10e-6,1.90626 0.65233,3.46876 1.95703,4.6875 1.30468,1.21876 2.98827,1.82813 5.05078,1.82813 2.06248,0 3.74998,-0.60937 5.0625,-1.82813 1.31248,-1.21874 1.96873,-2.78124 1.96875,-4.6875 -2e-5,-1.92186 -0.65627,-3.49998 -1.96875,-4.73437 -1.31252,-1.21874 -3.00002,-1.82811 -5.0625,-1.82813 l 0,0 z"
       style="font-size:48px;font-style:normal;font-variant:normal;font-weight:normal;font-stretch:normal;text-align:start;line-height:100%;writing-mode:lr-tb;text-anchor:start"
       id="flowRoot2232"
       inkscape:connector-curvature="0" />
    <path
       d="m 28.94644,304.65996 c -3e-5,4.25001 -1.19534,7.57422 -3.58594,9.97266 -2.39064,2.39843 -5.71095,3.59765 -9.96093,3.59765 -4.42189,0 -7.78907,-1.15234 -10.10157,-3.45703 -2.3125,-2.30468 -3.46875,-5.67577 -3.46875,-10.11328 l 0,-21.82031 0,0 2.32032,0 2.34375,0 0,0 0,21.46875 c -10e-6,3.20313 0.7578,5.63672 2.27343,7.30078 1.51562,1.66406 3.72655,2.49609 6.63282,2.49609 2.90623,0 5.11326,-0.83203 6.62109,-2.49609 1.50779,-1.66406 2.26169,-4.09765 2.26172,-7.30078 l 0,-21.46875 0,0 2.32031,0 2.34375,0 0,0 0,21.82031 z m 16.03125,2.32031 -10.38281,0 0,-3.51562 10.38281,0 0,-10.38282 3.51563,0 0,10.38282 10.38281,0 0,3.51562 -10.38281,0 0,10.38281 -3.51563,0 0,-10.38281 z m 28.21875,11.25 c -2.98438,0 -5.36329,-0.80078 -7.13672,-2.40234 -1.77344,-1.60156 -2.72266,-3.80859 -2.84765,-6.6211 l 0,0 4.07812,0 0,0 c 0.17187,1.73439 0.76953,3.07423 1.79297,4.01954 1.02343,0.94531 2.39452,1.41797 4.11328,1.41796 2.53124,10e-6 4.48436,-1.41405 5.85938,-4.24218 0.99998,-2.10937 1.64842,-4.8828 1.94531,-8.32032 l 0,0 c -2.09377,2.57814 -4.69533,3.8672 -7.80469,3.86719 -3.12501,10e-6 -5.64454,-1.02733 -7.55859,-3.08203 -1.91407,-2.05467 -2.8711,-4.7617 -2.8711,-8.12109 0,-3.35935 1.03906,-6.06247 3.11719,-8.10938 2.07812,-2.04684 4.82031,-3.07028 8.22656,-3.07031 3.62499,3e-5 6.41795,1.28519 8.37891,3.85547 1.96092,2.57034 2.94138,6.22268 2.94141,10.95703 -3e-5,6.35939 -1.06253,11.25782 -3.1875,14.69531 -2.12502,3.4375 -5.14064,5.15625 -9.04688,5.15625 l 0,0 z m 7.3125,-23.48437 c -2e-5,-2.17185 -0.6172,-3.94529 -1.85156,-5.32032 -1.23439,-1.37497 -2.82814,-2.06247 -4.78125,-2.0625 -1.95314,3e-5 -3.54688,0.68753 -4.78125,2.0625 -1.23438,1.37503 -1.85157,3.14847 -1.85156,5.32032 -1e-5,2.17189 0.61718,3.94923 1.85156,5.33203 1.23437,1.38283 2.82811,2.07423 4.78125,2.07422 1.95311,10e-6 3.54686,-0.6953 4.78125,-2.08594 1.23436,-1.37498 1.85154,-3.14842 1.85156,-5.32031 l 0,0 z m 7.64063,22.54687 13.00781,-34.45312 2.64844,0 2.67187,0 12.375,34.45312 0,0 -2.50781,0 -2.50781,0 0,0 -3.49219,-9.98437 0,0 -13.78125,0 0,0 -3.60938,9.98437 0,0 -2.39062,0 -2.41406,0 0,0 z m 15.44531,-29.39062 -5.53125,15.28125 0,0 10.85156,0 0,0 -5.32031,-15.28125 0,0 0,0 z m 16.61719,29.39062 13.00781,-34.45312 2.64844,0 2.67187,0 12.375,34.45312 0,0 -2.50781,0 -2.50781,0 0,0 -3.49219,-9.98437 0,0 -13.78125,0 0,0 -3.60938,9.98437 0,0 -2.39062,0 -2.41406,0 0,0 z m 15.44531,-29.39062 -5.53125,15.28125 0,0 10.85156,0 0,0 -5.32031,-15.28125 0,0 0,0 z m 35.10937,11.53125 0,0 c 0.90623,0.40626 1.73436,0.91408 2.48438,1.52343 2.10935,1.70314 3.16404,3.95314 3.16406,6.75 -2e-5,3.15626 -1.05471,5.69532 -3.16406,7.61719 -2.1094,1.92188 -4.89064,2.88281 -8.34375,2.88281 -3.45314,0 -6.23048,-0.96093 -8.33203,-2.88281 -2.10157,-1.92187 -3.15235,-4.46093 -3.15235,-7.61719 0,-2.79686 1.05469,-5.05467 3.16407,-6.77343 0.73437,-0.59374 1.54687,-1.08592 2.4375,-1.47657 l 0,0 c -0.56251,-0.31248 -1.10157,-0.65623 -1.61719,-1.03125 -1.89063,-1.46873 -2.83594,-3.40622 -2.83594,-5.8125 0,-2.71872 0.94922,-4.91012 2.84766,-6.57421 1.89843,-1.66403 4.39452,-2.49606 7.48828,-2.4961 3.09373,4e-5 5.58982,0.83207 7.48828,2.4961 1.89842,1.66409 2.84763,3.85549 2.84766,6.57421 -3e-5,2.40628 -0.95315,4.34377 -2.85938,5.8125 -0.50002,0.39065 -1.03908,0.72658 -1.61719,1.00782 l 0,0 z m -5.85937,-1.75782 c 1.71873,2e-5 3.12498,-0.48044 4.21875,-1.4414 1.09373,-0.96092 1.64061,-2.1992 1.64062,-3.71485 -1e-5,-1.51559 -0.54689,-2.75778 -1.64062,-3.72656 -1.09377,-0.96872 -2.50002,-1.45309 -4.21875,-1.45312 -1.71876,3e-5 -3.12501,0.4844 -4.21875,1.45312 -1.09376,0.96878 -1.64063,2.21097 -1.64063,3.72656 0,1.51565 0.54687,2.75784 1.64063,3.72657 1.09374,0.95314 2.49999,1.4297 4.21875,1.42968 l 0,0 z m 0,3.65625 c -2.06251,2e-5 -3.7461,0.6133 -5.05078,1.83985 -1.3047,1.22657 -1.95704,2.80079 -1.95703,4.72265 -1e-5,1.90626 0.65233,3.46876 1.95703,4.6875 1.30468,1.21876 2.98827,1.82813 5.05078,1.82813 2.06248,0 3.74998,-0.60937 5.0625,-1.82813 1.31248,-1.21874 1.96873,-2.78124 1.96875,-4.6875 -2e-5,-1.92186 -0.65627,-3.49998 -1.96875,-4.73437 -1.31252,-1.21874 -3.00002,-1.82811 -5.0625,-1.82813 l 0,0 z"
       style="font-size:48px;font-style:normal;font-variant:normal;font-weight:normal;font-stretch:normal;text-align:start;line-height:100%;writing-mode:lr-tb;text-anchor:start"
       id="flowRoot2242"
       inkscape:connector-curvature="0" />
    <path
       sodipodi:nodetypes="cccccccccccccccccccccccccccccccccscccccsccscccccccccccc"
       d="m 222.50756,35.073907 15.04688,-18.25781 0,0 -13.92188,0 0,0 0,-1.75781 0,-1.75781 0,0 19.57031,0 0,1.64062 0,1.66406 -15.04687,18.25782 0,0 15.39844,0 0,0 0,1.75781 0,1.75781 0,0 -21.04688,0 0,-1.64062 z m 25.64063,3.30469 0,-34.45312 0,0 2.10937,0 2.10938,0 0,0 0,12.77343 0,0 0,0 0.72656,-0.9375 c 1.82812,-2.1406 4.11718,-3.21091 6.86719,-3.21093 2.7656,2e-5 4.89842,0.75002 6.39843,2.25 1.49998,1.50002 2.24998,3.63283 2.25,6.39843 l 0,17.17969 0,0 -2.10937,0 -2.10938,0 0,0 0,-16.125 c -1e-5,-2.07811 -0.39845,-3.5742 -1.19531,-4.48828 -0.79689,-0.91404 -2.09376,-1.37107 -3.89062,-1.37109 -2.12501,2e-5 -3.81251,0.76955 -5.0625,2.30859 -1.25001,1.53908 -1.87501,3.62111 -1.875,6.24609 l 0,0 0,13.42969 0,0 -2.10938,0 -2.10937,0 z m 25.71093,-15.44531 11.76563,0 0,4.33594 -11.76563,0 z"
       style="font-size:48px;font-style:normal;font-variant:normal;font-weight:normal;font-stretch:normal;text-align:start;line-height:100%;writing-mode:lr-tb;text-anchor:start"
       id="flowRoot2256"
       inkscape:connector-curvature="0" />
    <path
       sodipodi:nodetypes="ccsssssccccccccssssscccccccccccccccccccccccccccc"
       d="m 210.42937,74.06266 0,0 c -0.59378,4.25001 -2.22268,7.58204 -4.88672,9.9961 -2.66408,2.41406 -6.03517,3.62109 -10.11328,3.62109 -4.75001,0 -8.53516,-1.63672 -11.35547,-4.91015 -2.82031,-3.27343 -4.23047,-7.68359 -4.23047,-13.23047 0,-5.54686 1.46485,-9.96482 4.39454,-13.25391 2.92967,-3.28903 6.86326,-4.93356 11.80078,-4.93359 3.8906,3e-5 7.08591,1.00003 9.58593,3 2.49997,2.00003 3.99997,4.75784 4.5,8.27343 l 0,0 -4.5,0 0,0 c -0.43752,-2.28122 -1.49612,-4.04294 -3.17578,-5.28515 -1.67971,-1.24216 -3.83986,-1.86325 -6.48047,-1.86328 -3.45313,3e-5 -6.20313,1.26956 -8.25,3.80859 -2.04688,2.53909 -3.07031,5.95705 -3.07031,10.25391 0,4.56251 0.94921,8.03907 2.84766,10.42968 1.89842,2.39063 4.65233,3.58594 8.26172,3.58594 2.67185,0 4.8906,-0.82421 6.65625,-2.47265 1.7656,-1.64843 2.93747,-3.98828 3.51562,-7.01954 l 0,0 z m 10.14844,12.67969 0,0 -2.25,0 -2.25,0 0,0 0,-34.45312 0,0 2.78906,0 2.8125,0 0,0 17.25,28.00781 0,0 0,0 0,-28.00781 0,0 2.25,0 2.25,0 0,0 0,34.45312 -2.55469,0 -2.55468,0 -17.74219,-28.10156 0,0 0,0 z"
       style="font-size:48px;font-style:normal;font-variant:normal;font-weight:normal;font-stretch:normal;text-align:start;line-height:100%;writing-mode:lr-tb;text-anchor:start"
       id="flowRoot2304"
       inkscape:connector-curvature="0" />
    <path
       d="m 352.66289,36.4255 0,0 2.10937,0 2.10938,0 0,0 0,28.5 c -1e-5,2.32812 -0.50001,4.0078 -1.5,5.03906 -1,1.03125 -2.625,1.54686 -4.875,1.54687 -0.64063,0 -1.23437,-0.0391 -1.78125,-0.11718 l 0,-3.67969 0.82031,0 c 1.21875,0 2.04297,-0.19141 2.47266,-0.57422 0.42968,-0.38282 0.64453,-1.1211 0.64453,-2.21484 l 0,0 0,-28.5 z m -0.0469,-9.374995 4.3125,0 0,4.781245 -4.3125,0 0,-4.781245 z m 17.27344,35.132805 c -2.45313,0 -4.39844,-0.65625 -5.83594,-1.96875 -1.4375,-1.3125 -2.15625,-3.08593 -2.15625,-5.32031 0,-2.24999 0.67578,-4.03906 2.02735,-5.36719 1.35156,-1.3281 3.32421,-2.15624 5.91797,-2.48437 l 5.74218,-0.72656 c 0.46874,-0.0469 0.91405,-0.12498 1.33594,-0.23438 0.54686,-0.1406 0.96873,-0.42185 1.26563,-0.84375 0.29685,-0.42185 0.44529,-0.9531 0.44531,-1.59375 l 0,-0.21094 c -2e-5,-1.34372 -0.50783,-2.39451 -1.52344,-3.15233 -1.01564,-0.7578 -2.4297,-1.13671 -4.24219,-1.13673 -1.73438,2e-5 -3.08985,0.40236 -4.0664,1.20703 -0.97657,0.80471 -1.56641,2.00392 -1.76953,3.59765 l 0,0 -3.89063,0 0,0 c 0.20312,-2.74998 1.17187,-4.81638 2.90625,-6.19921 1.73437,-1.38279 4.21874,-2.0742 7.45313,-2.07422 3.04686,2e-5 5.36717,0.66018 6.96093,1.98047 1.59373,1.32033 2.39061,3.24611 2.39063,5.77734 l 0,13.78125 c -2e-5,0.42188 0.12888,0.76172 0.38672,1.01953 0.25779,0.25782 0.60544,0.38672 1.04297,0.38672 0.12497,0 0.30857,-0.0156 0.55078,-0.0469 0.24216,-0.0312 0.50388,-0.0781 0.78515,-0.14062 l 0,3.04687 c -0.40627,0.15625 -0.83596,0.28125 -1.28906,0.375 -0.45315,0.0937 -0.83596,0.14063 -1.14844,0.14063 -1.59377,0 -2.75002,-0.4375 -3.46875,-1.3125 -0.46876,-0.57812 -0.8047,-1.39844 -1.00781,-2.46094 l 0,0 c -0.31252,0.39063 -0.67189,0.76563 -1.07812,1.125 -2.10939,1.89063 -4.68752,2.83594 -7.73438,2.83594 l 0,0 z m 8.74219,-10.61718 0,-2.71875 0,0 c -0.78127,0.375 -1.64845,0.63283 -2.60156,0.77343 l -3.86719,0.5625 c -2.03126,0.28126 -3.51563,0.75392 -4.45313,1.41798 -0.9375,0.66407 -1.40625,1.56641 -1.40625,2.70702 0,1.40625 0.38281,2.48828 1.14844,3.24609 0.76562,0.75782 1.85156,1.13672 3.25781,1.13672 2.21874,0 4.09374,-0.60156 5.625,-1.80469 1.04686,-0.84374 1.74217,-1.79685 2.08594,-2.85937 0.0625,-0.20312 0.10936,-0.52343 0.14063,-0.96093 0.0469,-0.45311 0.0703,-0.95311 0.0703,-1.5 l 0,0 z"
       style="font-size:48px;font-style:normal;font-variant:normal;font-weight:normal;font-stretch:normal;text-align:start;line-height:100%;writing-mode:lr-tb;text-anchor:start"
       id="flowRoot2312"
       inkscape:connector-curvature="0" />
    <path
       d="m 428.04619,60.71455 0,-34.453119 0,0 2.10937,0 2.10938,0 0,0 0,19.851559 0,0 10.59375,-10.47656 0,0 2.67187,0 2.69531,0 0,0 -9.53906,9.30468 0,0 10.17188,15.77344 0,0 -2.74219,0 -2.76563,0 0,0 -7.78125,-12.75 0,0 -3.30468,3.23438 0,0 0,9.51562 0,0 -2.10938,0 -2.10937,0 0,0 z m 34.125,0.67969 c -3.46876,0 -6.27735,-1.21875 -8.42578,-3.65625 -2.14844,-2.4375 -3.22266,-5.6328 -3.22266,-9.58594 0,-3.96873 1.07422,-7.17185 3.22266,-9.60937 2.14843,-2.43748 4.95702,-3.65623 8.42578,-3.65625 3.49998,2e-5 6.32029,1.21877 8.46093,3.65625 2.14061,2.43752 3.21092,5.64064 3.21094,9.60937 -2e-5,3.95314 -1.07033,7.14844 -3.21094,9.58594 -2.14064,2.4375 -4.96095,3.65625 -8.46093,3.65625 l 0,0 z m 0,-3.63281 c 2.21873,0 3.98436,-0.86719 5.29687,-2.60157 1.31248,-1.73436 1.96873,-4.0703 1.96875,-7.00781 -2e-5,-2.93748 -0.65627,-5.27732 -1.96875,-7.01953 -1.31251,-1.74217 -3.07814,-2.61326 -5.29687,-2.61328 -2.21876,2e-5 -3.98048,0.87111 -5.28516,2.61328 -1.30469,1.74221 -1.95704,4.08205 -1.95703,7.01953 -10e-6,2.93751 0.65234,5.27345 1.95703,7.00781 1.30468,1.73438 3.0664,2.60157 5.28516,2.60157 l 0,0 z"
       style="font-size:48px;font-style:normal;font-variant:normal;font-weight:normal;font-stretch:normal;text-align:start;line-height:100%;writing-mode:lr-tb;text-anchor:start"
       id="flowRoot2320"
       inkscape:connector-curvature="0" />
    <path
       sodipodi:nodetypes="cccccccccccccccccccccccccccccccccccccccccccccccccccccccccc"
       d="m 261.97182,86.77597 0,-30.32812 0,0 -11.64843,0 0,0 0,-2.0625 0,-2.062483 0,0 27.96093,0 0,0 0,2.062483 0,2.0625 0,0 -11.64843,0 0,0 0,30.32812 0,0 -2.32032,0 -2.34375,0 z m 26.8125,0 -9.02343,-34.453103 0,0 2.50781,0 2.53125,0 0,0 6.14062,27.234353 c 0.10937,0.45313 0.19921,0.88673 0.26954,1.30078 0.0703,0.41407 0.10545,0.70704 0.10546,0.87891 l 0,0 c -10e-6,-0.20312 0.0391,-0.51562 0.11719,-0.9375 0.0781,-0.42187 0.17186,-0.83593 0.28125,-1.24219 l 7.28906,-27.234353 2.625,0 2.625,0 7.24219,27.093733 c 0.12497,0.42188 0.22653,0.85157 0.30469,1.28906 0.0781,0.4375 0.11715,0.75782 0.11719,0.96094 l 0,0 c -4e-5,-0.17187 0.0351,-0.47656 0.10547,-0.91407 0.0703,-0.43749 0.16012,-0.8828 0.26953,-1.33593 l 6.21093,-27.093733 0,0 2.50781,0 2.50782,0 0,0 -9.02344,34.453103 -2.50781,0 -2.50781,0 -7.47657,-26.64844 c -0.12502,-0.45309 -0.23439,-0.89841 -0.32812,-1.33593 -0.0938,-0.43748 -0.14065,-0.74216 -0.14063,-0.91407 l 0,0 c -2e-5,0.20316 -0.0391,0.51956 -0.11718,0.94922 -0.0781,0.42972 -0.17971,0.86331 -0.30469,1.30078 l -7.3125,26.64844 -2.50781,0 z"
       style="font-size:48px;font-style:normal;font-variant:normal;font-weight:normal;font-stretch:normal;text-align:start;line-height:100%;writing-mode:lr-tb;text-anchor:start"
       id="flowRoot2256-1"
       inkscape:connector-curvature="0" />
    <path
       d="m 177.06512,43.797339 c 148.81622,0 148.81622,0 148.81622,0"
       style="fill:none;stroke:#000000;stroke-width:0.5488798px;stroke-linecap:butt;stroke-linejoin:miter;stroke-opacity:1"
       id="path2106-7"
       inkscape:connector-curvature="0" />
    <path
       d="m 0.58302212,0.475997 c 0,347.629203 0,347.629203 0,347.629203"
       style="fill:none;stroke:#000000;stroke-width:1.10354424px;stroke-linecap:butt;stroke-linejoin:miter;stroke-opacity:1"
       id="path2126-4"
       inkscape:connector-curvature="0" />
    <path
       d="m 0.53324997,0.49542 c 489.54821003,0 489.54821003,0 489.54821003,0"
       style="fill:none;stroke:#000000;stroke-width:1.00399995;stroke-linecap:butt;stroke-linejoin:miter;stroke-miterlimit:4;stroke-opacity:1;stroke-dasharray:none"
       id="path2112-0"
       inkscape:connector-curvature="0" />
  </g>
</svg>
